<?xml version="1.0" standalone="no"?>
<!DOCTYPE svg PUBLIC "-//W3C//DTD SVG 20010904//EN"
 "http://www.w3.org/TR/2001/REC-SVG-20010904/DTD/svg10.dtd">
<svg version="1.0" xmlns="http://www.w3.org/2000/svg"
 width="1100.000000pt" height="1100.000000pt" viewBox="0 0 1100.000000 1100.000000"
 preserveAspectRatio="xMidYMid meet">
<metadata>
Created by potrace 1.11, written by Peter Selinger 2001-2013
</metadata>
<g transform="translate(0.000000,1100.000000) scale(0.100000,-0.100000)"
fill="#000000" stroke="none">
<path d="M5433 10268 c-23 -24 -141 -158 -263 -298 l-221 -255 -167 -27 c-615
-101 -1218 -347 -1722 -701 -215 -150 -355 -270 -586 -501 -231 -231 -351
-371 -501 -586 -460 -654 -729 -1457 -750 -2238 l-6 -223 -278 -319 -279 -319
0 -60 0 -59 83 -75 c45 -41 183 -163 307 -271 l225 -196 63 1 63 2 43 -124
c163 -468 387 -873 705 -1274 122 -155 521 -554 676 -676 407 -324 829 -555
1301 -714 145 -49 391 -115 524 -140 47 -9 95 -18 108 -21 19 -4 22 -10 22
-58 l0 -54 311 -271 310 -271 53 0 c49 0 54 2 103 52 28 29 151 168 273 308
154 177 229 257 248 262 15 4 101 19 191 33 597 95 1209 345 1711 698 215 150
355 270 586 501 367 368 588 667 803 1091 281 551 434 1150 450 1762 l6 233
293 335 292 335 0 59 0 59 -82 75 c-46 41 -184 163 -308 271 l-225 196 -54 0
c-45 0 -60 -4 -81 -25 l-27 -26 -47 132 c-169 468 -383 851 -695 1244 -122
155 -521 554 -676 676 -407 324 -829 555 -1301 714 -162 55 -400 117 -554 145
-172 31 -160 27 -160 58 0 35 -33 67 -365 356 l-259 226 -51 0 c-47 0 -54 -3
-92 -42z m108 -75 c13 -16 12 -17 -3 -5 -14 12 -19 11 -30 -7 -7 -12 -17 -21
-22 -21 -5 0 1 11 14 25 28 30 24 29 41 8z m59 -48 c19 -19 32 -35 29 -35 -3
0 -20 16 -39 35 -19 19 -32 35 -29 35 3 0 20 -16 39 -35z m-120 2 c0 -2 -17
-19 -37 -38 l-38 -34 34 38 c33 34 41 42 41 34z m196 -69 l29 -33 -32 29 c-31
28 -38 36 -30 36 2 0 16 -15 33 -32z m-293 -42 c-15 -19 -32 -35 -37 -35 -6
-1 5 15 24 34 43 45 50 45 13 1z m367 -21 c19 -19 32 -35 29 -35 -3 0 -20 16
-39 35 -19 19 -32 35 -29 35 3 0 20 -16 39 -35z m-437 -58 c-15 -19 -30 -32
-32 -30 -5 3 49 63 57 63 2 0 -9 -15 -25 -33z m518 -14 c27 -29 28 -32 7 -17
-22 16 -54 54 -45 54 2 0 19 -16 38 -37z m-561 -36 c0 -2 -15 -16 -32 -33
l-33 -29 29 33 c28 30 36 37 36 29z m750 -134 c0 -7 -138 116 -147 131 -4 6
28 -20 70 -58 42 -38 77 -71 77 -73z m-837 33 c-15 -19 -32 -35 -37 -35 -6 -1
5 15 24 34 43 45 50 45 13 1z m886 -70 c25 -26 29 -36 19 -41 -7 -5 -10 -4 -5
0 4 5 -7 24 -25 42 -17 18 -30 33 -27 33 3 0 20 -15 38 -34z m-960 -14 c-19
-21 -36 -37 -38 -35 -5 3 59 73 67 73 2 0 -11 -17 -29 -38z m944 -75 c-15 -19
-30 -32 -32 -30 -5 3 49 63 57 63 2 0 -9 -15 -25 -33z m-993 20 c0 -2 -15 -16
-32 -33 l-33 -29 29 33 c28 30 36 37 36 29z m-93 -63 c-3 -3 -12 -4 -19 -1 -8
3 -5 6 6 6 11 1 17 -2 13 -5z m1126 -1 c-7 -2 -19 -2 -25 0 -7 3 -2 5 12 5 14
0 19 -2 13 -5z m-1196 -9 c-3 -3 -12 -4 -19 -1 -8 3 -5 6 6 6 11 1 17 -2 13
-5z m1266 -1 c-7 -2 -19 -2 -25 0 -7 3 -2 5 12 5 14 0 19 -2 13 -5z m-1326 -9
c-3 -3 -12 -4 -19 -1 -8 3 -5 6 6 6 11 1 17 -2 13 -5z m1390 0 c-3 -3 -12 -4
-19 -1 -8 3 -5 6 6 6 11 1 17 -2 13 -5z m-1450 -10 c-3 -3 -12 -4 -19 -1 -8 3
-5 6 6 6 11 1 17 -2 13 -5z m1506 -1 c-7 -2 -19 -2 -25 0 -7 3 -2 5 12 5 14 0
19 -2 13 -5z m-1556 -9 c-3 -3 -12 -4 -19 -1 -8 3 -5 6 6 6 11 1 17 -2 13 -5z
m-50 -10 c-3 -3 -12 -4 -19 -1 -8 3 -5 6 6 6 11 1 17 -2 13 -5z m-50 -10 c-3
-3 -12 -4 -19 -1 -8 3 -5 6 6 6 11 1 17 -2 13 -5z m1817 -3 c4 -5 -3 -7 -14
-4 -23 6 -26 13 -6 13 8 0 17 -4 20 -9z m-1864 -5 c0 -2 -7 -7 -16 -10 -8 -3
-12 -2 -9 4 6 10 25 14 25 6z m-113 -32 c-3 -3 -12 -4 -19 -1 -8 3 -5 6 6 6
11 1 17 -2 13 -5z m-57 -14 c-8 -5 -22 -9 -30 -9 -10 0 -8 3 5 9 27 12 43 12
25 0z m2234 1 c4 -5 -3 -7 -14 -4 -23 6 -26 13 -6 13 8 0 17 -4 20 -9z m63
-17 c-3 -3 -12 -4 -19 -1 -8 3 -5 6 6 6 11 1 17 -2 13 -5z m-862 -62 l-39 -37
35 41 c19 22 36 39 39 37 2 -2 -13 -20 -35 -41z m138 41 c-7 -2 -19 -2 -25 0
-7 3 -2 5 12 5 14 0 19 -2 13 -5z m70 -10 c-7 -2 -19 -2 -25 0 -7 3 -2 5 12 5
14 0 19 -2 13 -5z m772 -3 c13 -6 15 -9 5 -9 -8 0 -22 4 -30 9 -18 12 -2 12
25 0z m-708 -6 c-3 -3 -12 -4 -19 -1 -8 3 -5 6 6 6 11 1 17 -2 13 -5z m-1937
-14 c-8 -5 -22 -9 -30 -9 -10 0 -8 3 5 9 27 12 43 12 25 0z m2003 3 c-7 -2
-19 -2 -25 0 -7 3 -2 5 12 5 14 0 19 -2 13 -5z m702 -3 c13 -6 15 -9 5 -9 -8
0 -22 4 -30 9 -18 12 -2 12 25 0z m-2045 -3 c0 -2 -10 -12 -22 -23 -14 -12
-18 -13 -10 -3 6 9 9 19 5 22 -3 4 1 7 10 7 10 0 17 -2 17 -3z m1397 -3 c-3
-3 -12 -4 -19 -1 -8 3 -5 6 6 6 11 1 17 -2 13 -5z m-1460 -10 c-3 -3 -12 -4
-19 -1 -8 3 -5 6 6 6 11 1 17 -2 13 -5z m1510 0 c-3 -3 -12 -4 -19 -1 -8 3 -5
6 6 6 11 1 17 -2 13 -5z m-1560 -10 c-3 -3 -12 -4 -19 -1 -8 3 -5 6 6 6 11 1
17 -2 13 -5z m1610 0 c-3 -3 -12 -4 -19 -1 -8 3 -5 6 6 6 11 1 17 -2 13 -5z
m-1660 -10 c-3 -3 -12 -4 -19 -1 -8 3 -5 6 6 6 11 1 17 -2 13 -5z m1710 0 c-3
-3 -12 -4 -19 -1 -8 3 -5 6 6 6 11 1 17 -2 13 -5z m-2347 -14 c-8 -5 -19 -10
-25 -10 -5 0 -3 5 5 10 8 5 20 10 25 10 6 0 3 -5 -5 -10z m597 4 c-3 -3 -12
-4 -19 -1 -8 3 -5 6 6 6 11 1 17 -2 13 -5z m1790 0 c-3 -3 -12 -4 -19 -1 -8 3
-5 6 6 6 11 1 17 -2 13 -5z m-1862 -14 c-3 -5 -14 -10 -23 -9 -14 0 -13 2 3 9
27 11 27 11 20 0z m235 7 c0 -2 -17 -19 -37 -38 l-38 -34 34 38 c33 34 41 42
41 34z m1010 0 c0 -2 -15 -16 -32 -33 l-33 -29 29 33 c28 30 36 37 36 29z
m657 -3 c-3 -3 -12 -4 -19 -1 -8 3 -5 6 6 6 11 1 17 -2 13 -5z m584 -12 c-7
-2 -18 1 -23 6 -8 8 -4 9 13 5 13 -4 18 -8 10 -11z m-516 -10 c-3 -3 -11 0
-18 7 -9 10 -8 11 6 5 10 -3 15 -9 12 -12z m-375 -28 c794 -143 1589 -552
2135 -1099 387 -386 705 -894 913 -1455 27 -74 64 -185 82 -247 l33 -112 -83
-95 -83 -96 -341 0 c-188 0 -977 -5 -1754 -11 -778 -6 -1415 -9 -1416 -7 -2 1
7 611 20 1353 13 743 23 1389 24 1437 l0 87 123 140 122 141 45 -6 c25 -3 106
-17 180 -30z m415 18 c-3 -3 -11 0 -18 7 -9 10 -8 11 6 5 10 -3 15 -9 12 -12z
m-2635 -2 c-8 -5 -19 -10 -25 -10 -5 0 -3 5 5 10 8 5 20 10 25 10 6 0 3 -5 -5
-10z m525 0 c-27 -12 -43 -12 -25 0 8 5 22 9 30 9 10 0 8 -3 -5 -9z m-50 -10
c-3 -5 -12 -10 -18 -10 -7 0 -6 4 3 10 19 12 23 12 15 0z m2202 4 c-3 -3 -12
-4 -19 -1 -8 3 -5 6 6 6 11 1 17 -2 13 -5z m-2727 -14 c-8 -5 -19 -10 -25 -10
-5 0 -3 5 5 10 8 5 20 10 25 10 6 0 3 -5 -5 -10z m3280 0 c8 -5 11 -10 5 -10
-5 0 -17 5 -25 10 -8 5 -10 10 -5 10 6 0 17 -5 25 -10z m-470 -10 c18 -12 2
-12 -25 0 -13 6 -15 9 -5 9 8 0 22 -4 30 -9z m-2353 -6 c-3 -3 -12 -4 -19 -1
-8 3 -5 6 6 6 11 1 17 -2 13 -5z m1358 -42 l-39 -37 35 41 c19 22 36 39 39 37
2 -2 -13 -20 -35 -41z m-1895 23 c-14 -8 -29 -14 -35 -14 -5 0 1 6 15 14 14 8
30 14 35 14 6 0 -1 -6 -15 -14z m920 12 c0 -2 -17 -19 -37 -38 l-38 -34 34 38
c33 34 41 42 41 34z m2510 -7 c8 -5 11 -10 5 -10 -5 0 -17 5 -25 10 -8 5 -10
10 -5 10 6 0 17 -5 25 -10z m45 -28 c-3 -3 -11 0 -18 7 -9 10 -8 11 6 5 10 -3
15 -9 12 -12z m-3530 -2 c-3 -5 -12 -10 -18 -10 -7 0 -6 4 3 10 19 12 23 12
15 0z m455 0 c-8 -5 -19 -10 -25 -10 -5 0 -3 5 5 10 8 5 20 10 25 10 6 0 3 -5
-5 -10z m2640 0 c8 -5 11 -10 5 -10 -5 0 -17 5 -25 10 -8 5 -10 10 -5 10 6 0
17 -5 25 -10z m-3131 -14 c-10 -9 -149 -76 -149 -71 0 6 131 74 144 75 5 0 7
-2 5 -4z m3681 -31 c39 -19 70 -38 70 -40 0 -5 -139 62 -149 71 -13 12 18 0
79 -31z m-2883 18 c-3 -5 -233 -269 -511 -588 l-506 -580 0 -52 0 -51 83 -75
c45 -41 186 -165 312 -276 l230 -200 51 -1 c51 0 53 1 110 63 33 35 156 174
274 309 118 136 215 246 216 245 4 -4 -43 -3778 -47 -3782 -3 -3 -1782 1544
-1832 1594 -17 17 -5 33 322 407 l340 389 1 57 0 56 -82 75 c-46 41 -184 163
-308 271 l-225 196 -56 0 -56 0 -64 -67 c-36 -38 -307 -346 -604 -687 -296
-340 -541 -614 -543 -607 -6 18 47 289 88 447 182 704 555 1370 1035 1849 429
430 1016 779 1640 976 128 41 139 43 132 32z m-417 -13 c-8 -5 -19 -10 -25
-10 -5 0 -3 5 5 10 8 5 20 10 25 10 6 0 3 -5 -5 -10z m2860 0 c8 -5 11 -10 5
-10 -5 0 -17 5 -25 10 -8 5 -10 10 -5 10 6 0 17 -5 25 -10z m-2300 -3 c0 -2
-17 -19 -37 -38 l-38 -34 34 38 c33 34 41 42 41 34z m1010 0 c0 -2 -15 -16
-32 -33 l-33 -29 29 33 c28 30 36 37 36 29z m-1620 -17 c-8 -5 -19 -10 -25
-10 -5 0 -3 5 5 10 8 5 20 10 25 10 6 0 3 -5 -5 -10z m2960 0 c8 -5 11 -10 5
-10 -5 0 -17 5 -25 10 -8 5 -10 10 -5 10 6 0 17 -5 25 -10z m-3010 -20 c-8 -5
-19 -10 -25 -10 -5 0 -3 5 5 10 8 5 20 10 25 10 6 0 3 -5 -5 -10z m3060 0 c8
-5 11 -10 5 -10 -5 0 -17 5 -25 10 -8 5 -10 10 -5 10 6 0 17 -5 25 -10z
m-3100 -14 c0 -2 -7 -7 -16 -10 -8 -3 -12 -2 -9 4 6 10 25 14 25 6z m-425 -16
c-3 -5 -12 -10 -18 -10 -7 0 -6 4 3 10 19 12 23 12 15 0z m385 0 c0 -5 -5 -10
-11 -10 -5 0 -7 5 -4 10 3 6 8 10 11 10 2 0 4 -4 4 -10z m3210 0 c8 -5 11 -10
5 -10 -5 0 -17 5 -25 10 -8 5 -10 10 -5 10 6 0 17 -5 25 -10z m395 -8 c-3 -3
-11 0 -18 7 -9 10 -8 11 6 5 10 -3 15 -9 12 -12z m-4025 -7 c0 -2 -13 -11 -30
-20 -38 -19 -40 -11 -2 9 31 17 32 18 32 11z m999 -100 c-50 -58 -97 -109
-103 -112 -6 -4 20 29 58 73 86 98 129 144 134 144 2 0 -38 -47 -89 -105z
m2676 95 c3 -6 -1 -7 -9 -4 -18 7 -21 14 -7 14 6 0 13 -4 16 -10z m425 -25 c0
-10 -16 -4 -40 16 l-25 20 33 -16 c17 -8 32 -18 32 -20z m-3770 0 c-14 -8 -29
-14 -35 -14 -5 0 1 6 15 14 14 8 30 14 35 14 6 0 -1 -6 -15 -14z m3400 0 c14
-8 21 -14 15 -14 -5 0 -21 6 -35 14 -14 8 -20 14 -15 14 6 0 21 -6 35 -14z
m-3800 -10 c0 -2 -10 -9 -22 -15 -22 -11 -22 -10 -4 4 21 17 26 19 26 11z
m4220 -21 c0 -2 -9 0 -20 6 -11 6 -20 13 -20 16 0 2 9 0 20 -6 11 -6 20 -13
20 -16z m-345 -4 c3 -6 -1 -7 -9 -4 -18 7 -21 14 -7 14 6 0 13 -4 16 -10z
m-3565 -4 c0 -2 -7 -7 -16 -10 -8 -3 -12 -2 -9 4 6 10 25 14 25 6z m3995 -41
c11 -9 2 -7 -20 6 -22 12 -44 26 -50 32 -16 15 48 -20 70 -38z m-4385 20 c-7
-8 -18 -15 -24 -15 -6 0 -2 7 8 15 25 19 32 19 16 0z m3995 5 c3 -6 -1 -7 -9
-4 -18 7 -21 14 -7 14 6 0 13 -4 16 -10z m-3685 -25 c0 -2 -22 -16 -50 -30
-27 -14 -50 -23 -50 -20 0 2 21 16 48 29 53 28 52 28 52 21z m3820 -50 c0 -3
-22 6 -50 20 -27 14 -50 28 -50 30 0 3 23 -6 50 -20 28 -14 50 -28 50 -30z
m-4205 26 c-20 -17 -165 -111 -165 -106 0 2 37 29 82 60 77 51 105 67 83 46z
m4598 -64 c48 -32 87 -61 87 -64 0 -5 -6 -1 -105 66 -44 29 -84 58 -90 64 -16
16 13 -1 108 -66z m-2286 -109 c-2 -29 -3 -6 -3 52 0 58 1 81 3 53 2 -29 2
-77 0 -105z m-2057 127 c0 -2 -10 -9 -22 -15 -22 -11 -22 -10 -4 4 21 17 26
19 26 11z m4020 -21 c0 -2 -9 0 -20 6 -11 6 -20 13 -20 16 0 2 9 0 20 -6 11
-6 20 -13 20 -16z m-4090 -19 c0 -2 -10 -9 -22 -15 -22 -11 -22 -10 -4 4 21
17 26 19 26 11z m4185 -35 c3 -5 -10 -1 -29 11 -20 12 -36 23 -36 25 0 7 58
-25 65 -36z m-3255 27 c0 -2 -17 -19 -37 -38 l-38 -34 34 38 c33 34 41 42 41
34z m-1290 -21 c0 -3 -15 -14 -32 -26 l-33 -22 30 26 c31 27 35 29 35 22z
m295 -12 c-26 -20 -55 -36 -55 -30 0 5 63 46 70 46 3 -1 -4 -8 -15 -16z m4305
-30 c0 -2 -9 0 -20 6 -11 6 -20 13 -20 16 0 2 9 0 20 -6 11 -6 20 -13 20 -16z
m291 9 c13 -16 12 -17 -3 -4 -10 7 -18 15 -18 17 0 8 8 3 21 -13z m-4962 -26
c-2 -1 -20 -12 -39 -25 l-35 -23 34 30 c19 17 37 28 40 26 2 -3 2 -6 0 -8z
m5047 -39 c4 -7 -9 1 -29 16 -20 16 -37 30 -37 33 0 7 58 -36 66 -49z m-4776
28 c0 -2 -12 -11 -27 -20 l-28 -17 24 20 c23 21 31 25 31 17z m1010 1 c0 -2
-15 -16 -32 -33 l-33 -29 29 33 c28 30 36 37 36 29z m3476 -28 c3 -6 -5 -3
-20 6 -14 10 -26 19 -26 22 0 7 39 -17 46 -28z m-4836 -13 c0 -2 -31 -29 -70
-60 -38 -31 -70 -55 -70 -52 0 4 131 115 138 116 1 0 2 -2 2 -4z m5310 -136
c30 -28 10 -14 -45 31 -55 45 -107 88 -115 97 -30 31 107 -79 160 -128z
m-5060 107 c-24 -22 -126 -92 -114 -78 13 14 116 90 124 91 2 0 -2 -6 -10 -13z
m4758 -81 c7 -12 -95 59 -118 82 -8 8 13 -4 48 -28 35 -24 66 -48 70 -54z
m-3768 14 c-34 -39 -67 -73 -74 -77 -6 -4 20 28 58 70 38 42 71 77 73 77 3 0
-23 -32 -57 -70z m-1391 -32 c-2 -2 -17 -14 -34 -28 l-30 -25 29 32 c16 18 32
31 34 28 3 -3 3 -6 1 -7z m236 -23 c-22 -18 -42 -31 -45 -29 -3 3 2 9 11 14 9
5 27 18 40 29 13 11 26 20 29 20 3 0 -13 -15 -35 -34z m5015 -28 c0 -5 -18 6
-40 23 -22 17 -40 34 -40 36 0 8 79 -51 80 -59z m-5332 -19 c-8 -7 -37 -33
-64 -58 l-49 -45 55 58 c30 31 58 57 63 57 5 0 2 -6 -5 -12z m262 9 c0 -2 -10
-12 -22 -23 l-23 -19 19 23 c18 21 26 27 26 19z m1070 -67 c-34 -39 -67 -73
-74 -77 -6 -4 20 28 58 70 38 42 71 77 73 77 3 0 -23 -32 -57 -70z m4194 -85
c56 -49 121 -110 144 -135 114 -118 105 -113 -28 15 -80 77 -180 169 -222 204
-43 35 -78 66 -78 68 0 8 78 -57 184 -152z m136 98 l55 -57 -56 49 c-49 43
-68 65 -56 65 1 0 27 -26 57 -57z m-5510 -40 c-36 -32 -123 -114 -195 -183
-123 -119 -138 -127 -30 -16 58 59 277 256 285 256 3 0 -24 -26 -60 -57z
m-270 -27 c0 -2 -8 -10 -17 -17 -16 -13 -17 -12 -4 4 13 16 21 21 21 13z
m1370 -39 c0 -2 -15 -16 -32 -33 l-33 -29 29 33 c28 30 36 37 36 29z m1607
-69 c-3 -7 -5 -2 -5 12 0 14 2 19 5 13 2 -7 2 -19 0 -25z m3023 -43 c35 -36
62 -65 59 -65 -2 0 -34 29 -69 65 -35 36 -62 65 -59 65 2 0 34 -29 69 -65z
m-6156 -9 c-27 -30 -53 -54 -59 -55 -5 -1 15 24 45 54 70 70 78 71 14 1z
m1466 51 c0 -2 -17 -19 -37 -38 l-38 -34 34 38 c33 34 41 42 41 34z m1667
-150 c-2 -23 -3 -1 -3 48 0 50 1 68 3 42 2 -26 2 -67 0 -90z m-690 96 c0 -17
-1 -20 -4 -9 -4 15 -12 10 -50 -30 l-45 -49 47 58 c26 31 48 57 49 57 1 0 2
-12 3 -27z m-1047 -26 c0 -2 -17 -19 -37 -38 l-38 -34 34 38 c33 34 41 42 41
34z m-1518 -107 c-33 -38 -67 -79 -76 -91 -8 -13 -18 -21 -20 -18 -5 5 141
179 150 179 3 0 -21 -31 -54 -70z m6408 -2 c0 -9 -23 13 -55 53 -11 13 -3 8
18 -10 20 -19 37 -39 37 -43z m-4960 29 c0 -2 -17 -19 -37 -38 l-38 -34 34 38
c33 34 41 42 41 34z m1010 0 c0 -2 -17 -19 -37 -38 l-37 -34 30 37 c25 31 44
46 44 35z m-2270 -60 c-21 -20 -27 -23 -15 -7 35 43 40 48 44 44 3 -3 -10 -19
-29 -37z m6073 -49 c20 -26 36 -48 34 -48 -2 0 -30 30 -63 67 -32 37 -48 59
-34 49 14 -11 42 -41 63 -68z m222 -9 c27 -35 45 -60 39 -57 -5 4 -32 35 -59
69 -27 35 -45 60 -39 57 5 -4 32 -35 59 -69z m-5105 38 c0 -2 -17 -19 -37 -38
l-38 -34 34 38 c33 34 41 42 41 34z m1010 0 c0 -2 -17 -19 -37 -38 l-38 -34
34 38 c33 34 41 42 41 34z m-2280 -76 c-24 -28 -45 -51 -47 -51 -3 0 10 18 29
41 18 22 37 47 43 54 5 8 11 12 13 10 2 -2 -15 -27 -38 -54z m-210 5 c0 -2 -8
-10 -17 -17 -16 -13 -17 -12 -4 4 13 16 21 21 21 13z m1401 -20 c-9 -11 -6
-18 15 -35 15 -12 22 -21 17 -21 -5 0 -19 10 -31 23 -17 18 -19 26 -10 35 17
17 23 15 9 -2z m1019 11 c0 -2 -15 -16 -32 -33 l-33 -29 29 33 c28 30 36 37
36 29z m4045 -77 c26 -33 44 -60 41 -60 -2 0 -28 30 -56 66 -29 37 -48 64 -41
60 6 -4 31 -34 56 -66z m-6521 15 c-14 -19 -29 -35 -31 -35 -5 0 7 18 36 53
26 31 23 18 -5 -18z m6726 -5 c30 -43 18 -37 -16 7 -15 20 -23 33 -16 29 6 -3
21 -20 32 -36z m-6540 -30 c-17 -22 -34 -40 -36 -40 -8 0 51 79 59 80 5 0 -6
-18 -23 -40z m2230 27 c0 -2 -17 -19 -37 -38 l-38 -34 34 38 c33 34 41 42 41
34z m-847 -66 c-2 -3 -18 10 -36 29 l-32 34 36 -30 c20 -16 34 -31 32 -33z
m-1603 25 c0 -2 -8 -10 -17 -17 -16 -13 -17 -12 -4 4 13 16 21 21 21 13z
m6810 -26 c12 -16 19 -30 16 -30 -2 0 -14 14 -26 30 -12 17 -19 30 -16 30 2 0
14 -13 26 -30z m-6650 -40 c-12 -16 -24 -30 -26 -30 -3 0 4 14 16 30 12 17 24
30 26 30 3 0 -4 -13 -16 -30z m1591 -87 c8 -10 -19 11 -58 46 -40 35 -73 66
-73 68 0 7 114 -93 131 -114z m629 114 c0 -2 -17 -19 -37 -38 l-38 -34 34 38
c33 34 41 42 41 34z m4280 -69 c24 -35 36 -56 28 -48 -23 23 -94 125 -82 118
6 -4 30 -35 54 -70z m200 12 c12 -16 18 -30 13 -30 -4 0 -16 14 -25 30 -22 39
-15 39 12 0z m-6920 10 c0 -5 -5 -10 -11 -10 -5 0 -7 5 -4 10 3 6 8 10 11 10
2 0 4 -4 4 -10z m-30 -39 c-5 -11 -15 -23 -21 -27 -6 -3 -3 5 6 20 20 30 30
35 15 7z m200 -11 c-27 -39 -34 -39 -12 0 9 16 21 30 25 30 5 0 -1 -13 -13
-30z m3327 8 c-3 -8 -6 -5 -6 6 -1 11 2 17 5 13 3 -3 4 -12 1 -19z m-1127 9
c0 -2 -17 -19 -37 -38 l-37 -34 30 37 c25 31 44 46 44 35z m4604 -57 c14 -22
23 -40 19 -40 -5 0 -18 18 -31 40 -29 52 -22 52 12 0z m-3477 8 c-3 -8 -6 -5
-6 6 -1 11 2 17 5 13 3 -3 4 -12 1 -19z m-3557 -8 c0 -5 -5 -10 -11 -10 -5 0
-7 5 -4 10 3 6 8 10 11 10 2 0 4 -4 4 -10z m1926 -22 l29 -33 -32 29 c-31 28
-38 36 -30 36 2 0 16 -15 33 -32z m-1742 -3 c-9 -14 -18 -25 -21 -25 -5 0 5
18 20 38 17 22 18 13 1 -13z m3373 -118 c-2 -23 -3 -1 -3 48 0 50 1 68 3 42 2
-26 2 -67 0 -90z m-3587 103 c-6 -11 -13 -20 -16 -20 -2 0 0 9 6 20 6 11 13
20 16 20 2 0 0 -9 -6 -20z m2390 17 c0 -2 -15 -16 -32 -33 l-33 -29 29 33 c28
30 36 37 36 29z m507 -139 c-2 -29 -3 -8 -3 47 0 55 1 79 3 53 2 -26 2 -71 0
-100z m3993 122 c0 -5 -2 -10 -4 -10 -3 0 -8 5 -11 10 -3 6 -1 10 4 10 6 0 11
-4 11 -10z m-4860 -45 c19 -19 32 -35 29 -35 -3 0 -20 16 -39 35 -19 19 -32
35 -29 35 3 0 20 -16 39 -35z m5080 10 c14 -19 14 -19 -2 -6 -10 7 -18 18 -18
24 0 6 1 8 3 6 1 -2 9 -13 17 -24z m-7151 -32 c-12 -21 -27 -42 -32 -48 -11
-11 9 29 31 63 24 37 25 25 1 -15z m2326 -31 l-39 -37 35 41 c19 22 36 39 39
37 2 -2 -13 -20 -35 -41z m4860 8 c9 -16 13 -30 11 -30 -3 0 -12 14 -21 30 -9
17 -13 30 -11 30 3 0 12 -13 21 -30z m-7004 -7 c-5 -10 -17 -27 -26 -38 -16
-19 -17 -19 -3 5 26 46 29 50 34 50 3 0 0 -8 -5 -17z m1969 -18 c19 -19 32
-35 29 -35 -3 0 -20 16 -39 35 -19 19 -32 35 -29 35 3 0 20 -16 39 -35z m4840
15 c6 -11 8 -20 6 -20 -3 0 -10 9 -16 20 -6 11 -8 20 -6 20 3 0 10 -9 16 -20z
m-7040 -50 c-6 -11 -13 -20 -16 -20 -2 0 0 9 6 20 6 11 13 20 16 20 2 0 0 -9
-6 -20z m7270 0 c6 -11 8 -20 6 -20 -3 0 -10 9 -16 20 -6 11 -8 20 -6 20 3 0
10 -9 16 -20z m-4930 7 c0 -2 -13 -15 -28 -30 l-28 -27 -25 27 -24 28 26 -23
25 -22 24 25 c22 23 30 29 30 22z m-2160 -37 c-6 -11 -13 -20 -16 -20 -2 0 0
9 6 20 6 11 13 20 16 20 2 0 0 -9 -6 -20z m6910 0 c6 -11 8 -20 6 -20 -3 0
-10 9 -16 20 -6 11 -8 20 -6 20 3 0 10 -9 16 -20z m-7130 -40 c-11 -22 -23
-40 -25 -40 -3 0 4 18 15 40 11 22 23 40 25 40 3 0 -4 -18 -15 -40z m3027 -7
c-3 -10 -5 -2 -5 17 0 19 2 27 5 18 2 -10 2 -26 0 -35z m4318 17 c9 -16 13
-30 11 -30 -3 0 -12 14 -21 30 -9 17 -13 30 -11 30 3 0 12 -13 21 -30z m-7165
-40 c-6 -11 -13 -20 -16 -20 -2 0 0 9 6 20 6 11 13 20 16 20 2 0 0 -9 -6 -20z
m7000 -10 c0 -5 -2 -10 -4 -10 -3 0 -8 5 -11 10 -3 6 -1 10 4 10 6 0 11 -4 11
-10z m255 -122 c19 -37 35 -71 35 -75 0 -5 -21 30 -45 77 -43 82 -56 111 -34
80 5 -8 25 -45 44 -82z m-7310 32 c-14 -27 -28 -50 -30 -50 -3 0 6 23 20 50
14 28 28 50 30 50 3 0 -6 -22 -20 -50z m-212 -35 c-20 -41 -39 -73 -41 -71 -4
5 66 146 73 146 3 0 -12 -34 -32 -75z m7317 25 c11 -22 18 -40 15 -40 -2 0
-14 18 -25 40 -11 22 -18 40 -15 40 2 0 14 -18 25 -40z m-3523 -132 c-3 -8 -6
-5 -6 6 -1 11 2 17 5 13 3 -3 4 -12 1 -19z m3777 6 c3 -8 2 -12 -4 -9 -6 3
-10 10 -10 16 0 14 7 11 14 -7z m-7633 -27 c-10 -9 -11 -8 -5 6 3 10 9 15 12
12 3 -3 0 -11 -7 -18z m7668 -52 c0 -5 -6 1 -14 15 -8 14 -14 30 -14 35 0 6 6
-1 14 -15 8 -14 14 -29 14 -35z m-6458 28 c13 -16 12 -17 -3 -4 -10 7 -18 15
-18 17 0 8 8 3 21 -13z m-1230 -20 c-12 -20 -14 -14 -5 12 4 9 9 14 11 11 3
-2 0 -13 -6 -23z m180 -20 c-11 -21 -20 -35 -21 -31 0 12 33 78 38 74 2 -2 -6
-21 -17 -43z m1019 44 c0 -2 -17 -19 -37 -38 l-38 -34 34 38 c33 34 41 42 41
34z m6309 -52 c0 -5 -6 1 -14 15 -8 14 -14 30 -14 35 0 6 6 -1 14 -15 8 -14
14 -29 14 -35z m-6213 -7 l29 -33 -35 30 c-19 17 -37 31 -39 33 -2 1 0 2 5 2
6 0 23 -15 40 -32z m2581 10 c-3 -8 -6 -5 -6 6 -1 11 2 17 5 13 3 -3 4 -12 1
-19z m-3906 -52 c-14 -36 -22 -33 -9 5 6 16 12 28 14 26 3 -2 0 -16 -5 -31z
m3906 -73 c-2 -21 -4 -4 -4 37 0 41 2 58 4 38 2 -21 2 -55 0 -75z m3843 72 c0
-5 -5 -3 -10 5 -5 8 -10 20 -10 25 0 6 5 3 10 -5 5 -8 10 -19 10 -25z m-6681
-80 c-50 -58 -97 -109 -103 -112 -6 -4 20 29 58 73 86 98 129 144 134 144 2 0
-38 -47 -89 -105z m6502 69 c5 -15 8 -29 5 -31 -2 -2 -8 10 -14 26 -13 38 -5
41 9 5z m-6160 -21 l34 -38 -40 35 c-22 19 -42 36 -44 38 -2 1 0 2 5 2 6 0 26
-17 45 -37z m-1240 0 c-12 -20 -14 -14 -5 12 4 9 9 14 11 11 3 -2 0 -13 -6
-23z m7599 -18 c0 -5 -5 -3 -10 5 -5 8 -10 20 -10 25 0 6 5 3 10 -5 5 -8 10
-19 10 -25z m-6180 -142 c0 -3 -31 23 -70 57 -38 34 -70 64 -70 67 0 3 32 -23
70 -57 39 -34 70 -64 70 -67z m6020 82 c0 -5 -5 -3 -10 5 -5 8 -10 20 -10 25
0 6 5 3 10 -5 5 -8 10 -19 10 -25z m-7467 10 c-3 -9 -8 -14 -10 -11 -3 3 -2 9
2 15 9 16 15 13 8 -4z m-202 -42 c-12 -20 -14 -14 -5 12 4 9 9 14 11 11 3 -2
0 -13 -6 -23z m180 -10 c-8 -15 -10 -15 -11 -2 0 17 10 32 18 25 2 -3 -1 -13
-7 -23z m7509 -8 c0 -5 -5 -3 -10 5 -5 8 -10 20 -10 25 0 6 5 3 10 -5 5 -8 10
-19 10 -25z m189 -20 c0 -5 -4 -3 -9 5 -5 8 -9 22 -9 30 0 16 17 -16 18 -35z
m-7718 -22 c-12 -20 -14 -14 -5 12 4 9 9 14 11 11 3 -2 0 -13 -6 -23z m7549
-8 c0 -5 -5 -3 -10 5 -5 8 -10 20 -10 25 0 6 5 3 10 -5 5 -8 10 -19 10 -25z
m-4433 -147 c-2 -35 -3 -9 -3 57 0 66 1 94 3 63 2 -32 2 -86 0 -120z m-1576
125 l34 -37 -37 30 c-20 16 -37 32 -37 37 -2 12 4 8 40 -30z m-708 -7 c-15
-19 -32 -35 -37 -35 -6 -1 5 15 24 34 43 45 50 45 13 1z m6926 -51 c0 -5 -4
-3 -9 5 -5 8 -9 22 -9 30 0 16 17 -16 18 -35z m-7790 -4 c-6 -18 -13 -30 -15
-28 -2 2 1 18 7 36 6 18 13 30 15 28 2 -2 -1 -18 -7 -36z m7615 -11 c5 -17 4
-20 -2 -10 -5 8 -13 26 -16 40 -5 17 -4 20 2 10 5 -8 13 -26 16 -40z m-5968 8
c29 -31 29 -31 2 -12 -15 10 -29 25 -32 32 -8 18 -2 15 30 -20z m-1836 -23
c-16 -47 -23 -40 -8 8 6 20 13 35 16 33 2 -3 -1 -21 -8 -41z m1000 22 c0 -2
-15 -16 -32 -33 l-33 -29 29 33 c28 30 36 37 36 29z m6999 -52 c0 -5 -4 -3 -9
5 -5 8 -9 22 -9 30 0 16 17 -16 18 -35z m-6089 -10 l24 -26 -29 -27 -29 -27
24 28 25 29 -28 24 c-15 13 -24 24 -19 24 5 0 19 -11 32 -25z m6326 -17 l19
-23 -22 19 c-20 16 -25 17 -40 5 -16 -13 -17 -12 -4 4 18 22 24 22 47 -5z
m-7296 9 c0 -2 -17 -19 -37 -38 l-38 -34 34 38 c33 34 41 42 41 34z m7240 -30
c0 -2 -17 -19 -37 -38 l-38 -34 34 38 c33 34 41 42 41 34z m116 -29 l29 -33
-32 29 c-31 28 -38 36 -30 36 2 0 16 -15 33 -32z m-8336 -15 c-11 -17 -11 -17
-6 0 3 10 6 24 7 30 0 9 2 9 5 0 3 -7 0 -20 -6 -30z m177 -5 c-3 -8 -6 -5 -6
6 -1 11 2 17 5 13 3 -3 4 -12 1 -19z m3200 0 c-3 -8 -6 -5 -6 6 -1 11 2 17 5
13 3 -3 4 -12 1 -19z m4522 -28 c0 -10 -3 -8 -9 5 -12 27 -12 43 0 25 5 -8 9
-22 9 -30z m-7051 -44 c-35 -41 -67 -75 -71 -75 -5 -1 21 33 58 74 37 41 69
75 72 75 2 0 -24 -33 -59 -74z m1072 71 c0 -2 -17 -19 -37 -38 l-38 -34 34 38
c33 34 41 42 41 34z m6496 -49 l29 -33 -35 30 c-19 17 -37 31 -39 33 -2 1 0 2
5 2 6 0 23 -15 40 -32z m-291 -8 c-33 -34 -45 -38 -45 -12 0 12 3 13 8 4 6 -9
14 -6 32 13 13 14 26 25 29 25 2 0 -8 -13 -24 -30z m-4748 -2 c-3 -8 -6 -5 -6
6 -1 11 2 17 5 13 3 -3 4 -12 1 -19z m-3226 -11 c-10 -9 -11 -8 -5 6 3 10 9
15 12 12 3 -3 0 -11 -7 -18z m-174 -9 c-3 -8 -6 -5 -6 6 -1 11 2 17 5 13 3 -3
4 -12 1 -19z m4080 -130 c-2 -29 -3 -8 -3 47 0 55 1 79 3 53 2 -26 2 -71 0
-100z m-2207 129 c0 -2 -17 -19 -37 -38 l-38 -34 34 38 c33 34 41 42 41 34z
m6067 -19 c-3 -8 -6 -5 -6 6 -1 11 2 17 5 13 3 -3 4 -12 1 -19z m-7776 -19
c-5 -13 -10 -19 -10 -12 -1 15 10 45 15 40 3 -2 0 -15 -5 -28z m8459 -96 c0
-3 -31 23 -70 57 -38 34 -70 64 -70 67 0 3 32 -23 70 -57 39 -34 70 -64 70
-67z m-8633 95 c-3 -8 -6 -5 -6 6 -1 11 2 17 5 13 3 -3 4 -12 1 -19z m7970
-50 c-3 -8 -6 -5 -6 6 -1 11 2 17 5 13 3 -3 4 -12 1 -19z m-7816 -11 c-10 -9
-11 -8 -5 6 3 10 9 15 12 12 3 -3 0 -11 -7 -18z m649 20 c0 -2 -17 -19 -37
-38 l-38 -34 34 38 c33 34 41 42 41 34z m1010 0 c0 -2 -15 -16 -32 -33 l-33
-29 29 33 c28 30 36 37 36 29z m-1833 -39 c-3 -8 -6 -5 -6 6 -1 11 2 17 5 13
3 -3 4 -12 1 -19z m-10 -40 c-3 -8 -6 -5 -6 6 -1 11 2 17 5 13 3 -3 4 -12 1
-19z m8713 -13 c19 -19 32 -35 29 -35 -3 0 -20 16 -39 35 -19 19 -32 35 -29
35 3 0 20 -16 39 -35z m-8543 3 c-3 -8 -6 -5 -6 6 -1 11 2 17 5 13 3 -3 4 -12
1 -19z m1548 -53 c-37 -41 -70 -75 -73 -75 -3 0 10 17 28 38 86 92 104 112
108 112 2 0 -26 -34 -63 -75z m-955 62 c0 -2 -15 -16 -32 -33 l-33 -29 29 33
c28 30 36 37 36 29z m-773 -39 c-3 -8 -6 -5 -6 6 -1 11 2 17 5 13 3 -3 4 -12
1 -19z m8023 19 c0 -2 -17 -19 -37 -38 l-38 -34 34 38 c33 34 41 42 41 34z
m-7858 -39 c-8 -8 -9 -4 -5 13 4 13 8 18 11 10 2 -7 -1 -18 -6 -23z m8728
-106 c0 -6 -93 73 -115 99 -11 13 10 -3 48 -36 37 -32 67 -60 67 -63z m-8903
76 c-3 -8 -6 -5 -6 6 -1 11 2 17 5 13 3 -3 4 -12 1 -19z m723 19 c0 -2 -17
-19 -37 -38 l-38 -34 34 38 c33 34 41 42 41 34z m7209 -65 c-19 -21 -36 -37
-38 -35 -5 3 59 73 67 73 2 0 -11 -17 -29 -38z m-7772 -4 c-3 -8 -6 -5 -6 6
-1 11 2 17 5 13 3 -3 4 -12 1 -19z m493 -11 c0 -2 -17 -19 -37 -38 l-38 -34
34 38 c33 34 41 42 41 34z m1010 0 c0 -2 -15 -16 -32 -33 -27 -24 -29 -25 -13
-4 24 30 45 47 45 37z m-1683 -39 c-3 -8 -6 -5 -6 6 -1 11 2 17 5 13 3 -3 4
-12 1 -19z m170 0 c-3 -8 -6 -5 -6 6 -1 11 2 17 5 13 3 -3 4 -12 1 -19z m8753
9 c0 -2 -17 -19 -37 -38 l-38 -34 34 38 c33 34 41 42 41 34z m-1046 -39 c-16
-18 -32 -37 -36 -42 -5 -6 -8 -7 -8 -3 0 8 60 77 68 77 3 0 -7 -15 -24 -32z
m-7717 -20 c-3 -8 -6 -5 -6 6 -1 11 2 17 5 13 3 -3 4 -12 1 -19z m383 -58
c-34 -39 -67 -73 -74 -77 -6 -4 20 28 58 70 38 42 71 77 73 77 3 0 -23 -32
-57 -70z m1070 67 c0 -2 -17 -19 -37 -38 l-37 -34 30 37 c25 31 44 46 44 35z
m7240 -30 c0 -2 -14 -16 -32 -33 l-32 -29 25 32 c20 27 39 41 39 30z m-8703
-39 c-3 -7 -5 -2 -5 12 0 14 2 19 5 13 2 -7 2 -19 0 -25z m6716 25 c-57 -2
-149 -2 -205 0 -57 1 -11 3 102 3 113 0 159 -2 103 -3z m150 0 c-7 -2 -21 -2
-30 0 -10 3 -4 5 12 5 17 0 24 -2 18 -5z m44 1 c-3 -3 -12 -4 -19 -1 -8 3 -5
6 6 6 11 1 17 -2 13 -5z m40 0 c-3 -3 -12 -4 -19 -1 -8 3 -5 6 6 6 11 1 17 -2
13 -5z m100 0 c-3 -3 -12 -4 -19 -1 -8 3 -5 6 6 6 11 1 17 -2 13 -5z m-1779
-11 c-53 -2 -143 -2 -200 0 -57 1 -13 3 97 3 110 0 156 -2 103 -3z m165 0 c-7
-2 -21 -2 -30 0 -10 3 -4 5 12 5 17 0 24 -2 18 -5z m44 1 c-3 -3 -12 -4 -19
-1 -8 3 -5 6 6 6 11 1 17 -2 13 -5z m-5650 -26 c-3 -8 -6 -5 -6 6 -1 11 2 17
5 13 3 -3 4 -12 1 -19z m4250 16 c-3 -3 -12 -4 -19 -1 -8 3 -5 6 6 6 11 1 17
-2 13 -5z m86 -1 c-7 -2 -21 -2 -30 0 -10 3 -4 5 12 5 17 0 24 -2 18 -5z
m-2773 -16 c0 -2 -17 -19 -37 -38 l-38 -34 34 38 c33 34 41 42 41 34z m-1403
-49 c-3 -7 -5 -2 -5 12 0 14 2 19 5 13 2 -7 2 -19 0 -25z m3330 -135 c-2 -32
-3 -6 -3 57 0 63 1 89 3 58 2 -32 2 -84 0 -115z m5253 87 c-34 -38 -64 -70
-67 -70 -2 0 24 33 59 73 35 41 65 72 67 71 2 -2 -24 -35 -59 -74z m-8753 28
c-3 -8 -6 -5 -6 6 -1 11 2 17 5 13 3 -3 4 -12 1 -19z m493 -11 c0 -2 -17 -19
-37 -38 l-38 -34 34 38 c33 34 41 42 41 34z m950 -67 c-34 -38 -64 -70 -67
-70 -3 0 23 32 57 70 34 39 64 70 67 70 3 0 -23 -31 -57 -70z m-1283 28 c-3
-7 -5 -2 -5 12 0 14 2 19 5 13 2 -7 2 -19 0 -25z m-170 -20 c-3 -8 -6 -5 -6 6
-1 11 2 17 5 13 3 -3 4 -12 1 -19z m160 -50 c-3 -7 -5 -2 -5 12 0 14 2 19 5
13 2 -7 2 -19 0 -25z m252 5 c-14 -16 -44 -49 -67 -75 -23 -26 -42 -45 -42
-42 0 8 122 144 128 144 3 0 -5 -12 -19 -27z m8281 4 c0 -2 -17 -19 -37 -38
l-37 -34 30 37 c25 31 44 46 44 35z m-8703 -49 c-3 -8 -6 -5 -6 6 -1 11 2 17
5 13 3 -3 4 -12 1 -19z m1463 -75 c0 -8 -80 62 -80 70 0 4 18 -9 40 -29 22
-21 40 -39 40 -41z m-1463 35 c-3 -8 -6 -5 -6 6 -1 11 2 17 5 13 3 -3 4 -12 1
-19z m160 -10 c-3 -7 -5 -2 -5 12 0 14 2 19 5 13 2 -7 2 -19 0 -25z m3360 0
c-3 -7 -5 -2 -5 12 0 14 2 19 5 13 2 -7 2 -19 0 -25z m5048 -53 c-37 -41 -70
-75 -72 -75 -6 0 107 132 122 142 23 17 13 4 -50 -67z m-5048 13 c-3 -8 -6 -5
-6 6 -1 11 2 17 5 13 3 -3 4 -12 1 -19z m-3217 -1 c0 -2 -15 -16 -32 -33 l-33
-29 29 33 c28 30 36 37 36 29z m1216 -29 l29 -33 -35 30 c-19 17 -37 31 -39
33 -2 1 0 2 5 2 6 0 23 -15 40 -32z m-1529 -40 c-2 -13 -4 -3 -4 22 0 25 2 35
4 23 2 -13 2 -33 0 -45z m160 20 c-3 -7 -5 -2 -5 12 0 14 2 19 5 13 2 -7 2
-19 0 -25z m1444 -45 l34 -37 -37 30 c-20 16 -37 32 -37 37 -2 12 4 8 40 -30z
m-1351 24 c0 -2 -17 -19 -37 -38 l-38 -34 34 38 c33 34 41 42 41 34z m8250
-30 c0 -2 -15 -16 -32 -33 l-33 -29 29 33 c28 30 36 37 36 29z m-6819 -64 l34
-37 -37 30 c-20 16 -37 32 -37 37 -2 12 4 8 40 -30z m-1511 2 c-7 -8 -17 -15
-23 -15 -6 0 -2 7 9 15 25 19 30 19 14 0z m8260 -18 c0 -2 -10 -12 -22 -23
l-23 -19 19 23 c18 21 26 27 26 19z m-6674 -49 l29 -32 -32 25 c-18 13 -32 27
-32 32 -1 12 4 8 35 -25z m85 -75 l34 -38 -40 35 c-22 19 -42 36 -44 38 -2 1
0 2 5 2 6 0 26 -17 45 -37z m79 -68 c19 -19 32 -35 29 -35 -3 0 -20 16 -39 35
-19 19 -32 35 -29 35 3 0 20 -16 39 -35z m-1977 -48 c-15 -19 -30 -32 -32 -30
-5 3 49 63 57 63 2 0 -9 -15 -25 -33z m8296 1 c0 -13 -3 -17 -6 -10 -4 10 -16
4 -41 -20 l-36 -33 34 42 c40 48 50 52 49 21z m-6239 -23 c19 -19 32 -35 29
-35 -3 0 -20 16 -39 35 -19 19 -32 35 -29 35 3 0 20 -16 39 -35z m-2100 -28
c0 -2 -15 -16 -32 -33 l-33 -29 29 33 c28 30 36 37 36 29z m2176 -39 l29 -33
-32 29 c-31 28 -38 36 -30 36 2 0 16 -15 33 -32z m6084 19 c0 -2 -17 -19 -37
-38 l-38 -34 34 38 c33 34 41 42 41 34z m-2967 -34 c-83 -2 -223 -2 -310 0
-87 1 -18 3 152 3 171 0 242 -2 158 -3z m200 0 c-7 -2 -21 -2 -30 0 -10 3 -4
5 12 5 17 0 24 -2 18 -5z m74 1 c-3 -3 -12 -4 -19 -1 -8 3 -5 6 6 6 11 1 17
-2 13 -5z m46 -1 c-7 -2 -19 -2 -25 0 -7 3 -2 5 12 5 14 0 19 -2 13 -5z
m-1996 -145 c-2 -29 -3 -8 -3 47 0 55 1 79 3 53 2 -26 2 -71 0 -100z m3583
127 c-14 -17 -25 -20 -15 -5 3 5 -21 11 -57 13 l-63 3 74 2 c64 2 72 0 61 -13z
m1127 -22 c-3 -10 -5 -4 -5 12 0 17 2 24 5 18 2 -7 2 -21 0 -30z m-8387 24 c0
-2 -17 -19 -37 -38 l-38 -34 34 38 c33 34 41 42 41 34z m2310 -32 c19 -19 32
-35 29 -35 -3 0 -20 16 -39 35 -19 19 -32 35 -29 35 3 0 20 -16 39 -35z m6237
-17 c-2 -13 -4 -5 -4 17 -1 22 1 32 4 23 2 -10 2 -28 0 -40z m-1307 19 c0 -2
-17 -19 -37 -38 l-38 -34 34 38 c33 34 41 42 41 34z m1010 0 c0 -2 -17 -19
-37 -38 l-38 -34 34 38 c33 34 41 42 41 34z m-5860 -72 c19 -19 32 -35 29 -35
-3 0 -20 16 -39 35 -19 19 -32 35 -29 35 3 0 20 -16 39 -35z m-2460 22 c0 -2
-17 -19 -37 -38 l-38 -34 34 38 c33 34 41 42 41 34z m7078 -10 c19 -2 -14 -44
-222 -282 l-245 -280 -1 -56 0 -57 311 -271 311 -271 53 0 c52 0 53 0 121 73
38 40 260 292 493 560 234 267 426 485 428 483 8 -7 -52 -324 -89 -470 -179
-716 -555 -1394 -1043 -1881 -382 -383 -886 -700 -1441 -908 -129 -48 -363
-121 -370 -115 -2 2 269 316 601 697 l605 694 0 53 0 53 -310 271 -311 271
-62 -3 -62 -3 -337 -385 c-185 -212 -343 -384 -351 -384 -8 1 -159 127 -336
280 l-322 279 6 460 c3 253 8 627 11 830 l7 370 1266 -3 c696 -1 1276 -4 1289
-5z m-6069 1 c-2 -2 -20 -16 -38 -33 l-35 -30 25 32 c13 18 30 32 38 32 8 1
12 0 10 -1z m75 -65 c8 -20 3 -16 -35 24 l-34 37 32 -25 c17 -13 34 -30 37
-36z m6156 44 c0 -2 -17 -19 -37 -38 l-38 -34 34 38 c33 34 41 42 41 34z
m1010 0 c0 -2 -15 -16 -32 -33 l-33 -29 29 33 c28 30 36 37 36 29z m197 -29
c-3 -7 -5 -2 -5 12 0 14 2 19 5 13 2 -7 2 -19 0 -25z m-5907 -33 c19 -19 32
-35 29 -35 -3 0 -20 16 -39 35 -19 19 -32 35 -29 35 3 0 20 -16 39 -35z m6067
-7 c-3 -7 -5 -2 -5 12 0 14 2 19 5 13 2 -7 2 -19 0 -25z m-8737 -48 c-34 -39
-67 -73 -74 -77 -6 -4 20 28 58 70 38 42 71 77 73 77 3 0 -23 -32 -57 -70z
m1070 67 c0 -2 -17 -19 -37 -38 l-38 -34 34 38 c33 34 41 42 41 34z m229 -64
c2 -2 2 -5 -1 -8 -2 -3 -20 12 -39 33 l-34 37 35 -30 c19 -17 37 -31 39 -32z
m5941 -33 c-34 -38 -64 -70 -67 -70 -3 0 23 32 57 70 34 39 64 70 67 70 3 0
-23 -31 -57 -70z m1010 0 c-34 -38 -64 -70 -67 -70 -3 0 23 32 57 70 34 39 64
70 67 70 3 0 -23 -31 -57 -70z m317 28 c-3 -7 -5 -2 -5 12 0 14 2 19 5 13 2
-7 2 -19 0 -25z m-5817 -13 c19 -19 32 -35 29 -35 -3 0 -20 16 -39 35 -19 19
-32 35 -29 35 3 0 20 -16 39 -35z m1127 -12 c-3 -10 -5 -4 -5 12 0 17 2 24 5
18 2 -7 2 -21 0 -30z m-2877 14 c0 -2 -15 -16 -32 -33 l-33 -29 29 33 c28 30
36 37 36 29z m373 -56 c-2 -3 -18 10 -36 29 l-32 34 36 -30 c20 -16 34 -31 32
-33z m7354 27 c-3 -7 -5 -2 -5 12 0 14 2 19 5 13 2 -7 2 -19 0 -25z m-5893
-1450 c928 -809 1685 -1475 1684 -1479 -2 -4 -95 -112 -207 -240 -192 -220
-205 -233 -235 -230 -17 1 -92 14 -166 27 -798 145 -1589 552 -2135 1099 -444
444 -806 1063 -995 1702 -38 131 -39 136 -22 158 39 52 377 435 383 435 3 0
765 -662 1693 -1472z m1713 1330 c-2 -29 -3 -8 -3 47 0 55 1 79 3 53 2 -26 2
-71 0 -100z m4010 85 c-3 -10 -5 -4 -5 12 0 17 2 24 5 18 2 -7 2 -21 0 -30z
m-5727 -8 c19 -19 32 -35 29 -35 -3 0 -20 16 -39 35 -19 19 -32 35 -29 35 3 0
20 -16 39 -35z m-1404 -27 l29 -33 -32 29 c-31 28 -38 36 -30 36 2 0 16 -15
33 -32z m-1566 -48 c-34 -38 -64 -70 -67 -70 -3 0 23 32 57 70 34 39 64 70 67
70 3 0 -23 -31 -57 -70z m1010 0 c-34 -38 -64 -70 -66 -70 -9 0 111 138 120
139 4 1 -20 -30 -54 -69z m7847 48 c-3 -8 -6 -5 -6 6 -1 11 2 17 5 13 3 -3 4
-12 1 -19z m-1547 -1 c0 -2 -17 -19 -37 -38 l-38 -34 34 38 c33 34 41 42 41
34z m945 -72 c-37 -41 -70 -75 -73 -75 -3 0 10 17 28 38 86 92 104 112 108
112 2 0 -26 -34 -63 -75z m432 43 c-3 -7 -5 -2 -5 12 0 14 2 19 5 13 2 -7 2
-19 0 -25z m-5641 -10 l29 -33 -32 29 c-31 28 -38 36 -30 36 2 0 16 -15 33
-32z m-1406 -23 c19 -19 32 -35 29 -35 -3 0 -20 16 -39 35 -19 19 -32 35 -29
35 3 0 20 -16 39 -35z m7207 -7 c-3 -7 -5 -2 -5 12 0 14 2 19 5 13 2 -7 2 -19
0 -25z m-170 -20 c-3 -7 -5 -2 -5 12 0 14 2 19 5 13 2 -7 2 -19 0 -25z m-5557
-13 c19 -19 32 -35 29 -35 -3 0 -20 16 -39 35 -19 19 -32 35 -29 35 3 0 20
-16 39 -35z m4120 22 c0 -2 -17 -19 -37 -38 l-38 -34 34 38 c33 34 41 42 41
34z m-5520 -52 c19 -19 32 -35 29 -35 -3 0 -20 16 -39 35 -19 19 -32 35 -29
35 3 0 20 -16 39 -35z m7117 3 c-3 -7 -5 -2 -5 12 0 14 2 19 5 13 2 -7 2 -19
0 -25z m-170 -10 c-3 -8 -6 -5 -6 6 -1 11 2 17 5 13 3 -3 4 -12 1 -19z m-8707
-13 c13 -14 21 -25 18 -25 -2 0 -15 11 -28 25 -13 14 -21 25 -18 25 2 0 15
-11 28 -25z m915 -50 c-37 -41 -70 -75 -73 -75 -3 0 10 17 28 38 86 92 104
112 108 112 2 0 -26 -34 -63 -75z m2325 30 c19 -19 32 -35 29 -35 -3 0 -20 16
-39 35 -19 19 -32 35 -29 35 3 0 20 -16 39 -35z m3939 -23 c-19 -21 -36 -37
-38 -35 -5 3 59 73 67 73 2 0 -11 -17 -29 -38z m1041 35 c0 -2 -15 -16 -32
-33 l-33 -29 29 33 c28 30 36 37 36 29z m-6380 -42 c19 -19 32 -35 29 -35 -3
0 -20 16 -39 35 -19 19 -32 35 -29 35 3 0 20 -16 39 -35z m6857 13 c-3 -8 -6
-5 -6 6 -1 11 2 17 5 13 3 -3 4 -12 1 -19z m-8627 -23 c19 -19 32 -35 29 -35
-3 0 -20 16 -39 35 -19 19 -32 35 -29 35 3 0 20 -16 39 -35z m3350 -122 c0 -8
-139 112 -139 120 -1 5 31 -19 69 -54 39 -34 70 -64 70 -66z m5437 95 c-3 -7
-5 -2 -5 12 0 14 2 19 5 13 2 -7 2 -19 0 -25z m-737 -31 l-34 -32 30 36 c16
20 31 34 33 32 3 -2 -10 -18 -29 -36z m-6091 -94 c2 -2 2 -5 0 -7 -2 -2 -38
27 -79 66 l-75 70 75 -63 c41 -35 77 -65 79 -66z m-1879 82 c19 -19 32 -35 29
-35 -3 0 -20 16 -39 35 -19 19 -32 35 -29 35 3 0 20 -16 39 -35z m6980 32 c0
-2 -15 -16 -32 -33 l-33 -29 29 33 c28 30 36 37 36 29z m1717 -39 c-3 -7 -5
-2 -5 12 0 14 2 19 5 13 2 -7 2 -19 0 -25z m-8007 -1 c0 -2 -12 -14 -27 -28
l-28 -24 24 28 c23 25 31 32 31 24z m7833 -27 c-3 -12 -8 -19 -11 -16 -5 6 5
36 12 36 2 0 2 -9 -1 -20z m-688 -110 c-53 -60 -99 -110 -101 -110 -3 0 39 51
93 113 54 63 100 112 102 111 2 -2 -40 -53 -94 -114z m-7655 -17 c0 -3 -31 23
-70 57 -38 34 -70 64 -70 67 0 3 32 -23 70 -57 39 -34 70 -64 70 -67z m6718
98 c-13 -15 -25 -27 -27 -25 -4 4 39 54 47 54 2 0 -7 -13 -20 -29z m1789 7
c-3 -8 -6 -5 -6 6 -1 11 2 17 5 13 3 -3 4 -12 1 -19z m-8030 -30 c-3 -8 -6 -5
-6 6 -1 11 2 17 5 13 3 -3 4 -12 1 -19z m2673 -13 c19 -19 32 -35 29 -35 -3 0
-20 16 -39 35 -19 19 -32 35 -29 35 3 0 20 -16 39 -35z m5177 13 c-3 -8 -6 -5
-6 6 -1 11 2 17 5 13 3 -3 4 -12 1 -19z m170 -10 c-3 -8 -6 -5 -6 6 -1 11 2
17 5 13 3 -3 4 -12 1 -19z m-6751 -30 l29 -33 -32 29 c-31 28 -38 36 -30 36 2
0 16 -15 33 -32z m5004 -3 c19 -19 32 -35 29 -35 -3 0 -20 16 -39 35 -19 19
-32 35 -29 35 3 0 20 -16 39 -35z m-6263 3 c-3 -8 -6 -5 -6 6 -1 11 2 17 5 13
3 -3 4 -12 1 -19z m7830 0 c-3 -8 -6 -5 -6 6 -1 11 2 17 5 13 3 -3 4 -12 1
-19z m170 -10 c-3 -8 -6 -5 -6 6 -1 11 2 17 5 13 3 -3 4 -12 1 -19z m-5261
-30 l29 -33 -32 29 c-31 28 -38 36 -30 36 2 0 16 -15 33 -32z m-2729 0 c-3 -8
-6 -5 -6 6 -1 11 2 17 5 13 3 -3 4 -12 1 -19z m7810 0 c-3 -8 -6 -5 -6 6 -1
11 2 17 5 13 3 -3 4 -12 1 -19z m-6487 -23 c19 -19 32 -35 29 -35 -3 0 -20 16
-39 35 -19 19 -32 35 -29 35 3 0 20 -16 39 -35z m5010 -10 c19 -19 32 -35 29
-35 -3 0 -20 16 -39 35 -19 19 -32 35 -29 35 3 0 20 -16 39 -35z m-6774 -7
l29 -33 -32 29 c-31 28 -38 36 -30 36 2 0 16 -15 33 -32z m8411 -10 c-3 -8 -6
-5 -6 6 -1 11 2 17 5 13 3 -3 4 -12 1 -19z m-8123 -4 c5 -13 4 -14 -7 -6 -8 7
-18 8 -22 4 -5 -4 -5 -1 -1 6 10 17 23 15 30 -4z m2962 -16 l29 -33 -35 30
c-19 17 -37 31 -39 33 -2 1 0 2 5 2 6 0 23 -15 40 -32z m411 -105 c-2 -27 -3
-5 -3 47 0 52 1 74 3 48 2 -27 2 -69 0 -95z m-3587 72 c19 -19 32 -35 29 -35
-3 0 -20 16 -39 35 -19 19 -32 35 -29 35 3 0 20 -16 39 -35z m133 -20 c-26
-30 -51 -55 -54 -55 -3 0 -14 10 -25 23 l-19 22 23 -20 c23 -19 24 -19 37 -1
22 29 75 86 81 86 3 0 -16 -25 -43 -55z m1781 -98 c28 -27 0 -5 -61 49 -62 53
-113 99 -113 101 0 6 109 -88 174 -150z m2343 116 c-3 -10 -5 -4 -5 12 0 17 2
24 5 18 2 -7 2 -21 0 -30z m2519 5 l29 -33 -32 29 c-31 28 -38 36 -30 36 2 0
16 -15 33 -32z m1551 10 c-3 -8 -6 -5 -6 6 -1 11 2 17 5 13 3 -3 4 -12 1 -19z
m-5081 -40 l29 -32 -32 25 c-18 13 -32 27 -32 32 -1 12 4 8 35 -25z m4174 29
c0 -2 -17 -19 -37 -38 l-38 -34 34 38 c33 34 41 42 41 34z m-7001 -67 c0 -9
-4 -8 -9 5 -5 11 -9 27 -9 35 0 9 4 8 9 -5 5 -11 9 -27 9 -35z m7713 18 c-8
-8 -9 -4 -5 13 4 13 8 18 11 10 2 -7 -1 -18 -6 -23z m-3875 0 c-3 -8 -6 -5 -6
6 -1 11 2 17 5 13 3 -3 4 -12 1 -19z m2700 -112 c4 -6 -28 20 -70 58 -42 38
-77 71 -77 73 0 7 138 -116 147 -131z m-3591 26 c69 -66 53 -55 -38 26 -26 23
-44 42 -40 42 4 -1 39 -31 78 -68z m891 46 c-3 -8 -6 -5 -6 6 -1 11 2 17 5 13
3 -3 4 -12 1 -19z m3093 9 c0 -2 -17 -19 -37 -38 l-38 -34 34 38 c33 34 41 42
41 34z m-3093 -179 c-2 -29 -3 -6 -3 52 0 58 1 81 3 53 2 -29 2 -77 0 -105z
m-670 85 c-3 -10 -5 -2 -5 17 0 19 2 27 5 18 2 -10 2 -26 0 -35z m4690 15 c-3
-8 -6 -5 -6 6 -1 11 2 17 5 13 3 -3 4 -12 1 -19z m-7988 -58 c0 -8 -7 1 -14
20 -18 46 -17 64 0 25 8 -16 14 -37 14 -45z m6991 57 c0 -2 -17 -19 -37 -38
l-38 -34 34 38 c33 34 41 42 41 34z m-5202 -100 c23 -20 39 -37 35 -37 -5 0
-38 29 -74 63 -63 60 -51 52 39 -26z m5039 -41 c4 -6 -28 20 -70 58 -42 38
-77 71 -77 73 0 7 138 -116 147 -131z m962 85 c-6 -18 -13 -30 -15 -28 -2 2 1
18 7 36 6 18 13 30 15 28 2 -2 -1 -18 -7 -36z m-7600 -26 c0 -5 -4 -3 -9 5 -5
8 -9 22 -9 30 0 16 17 -16 18 -35z m3011 0 c19 -19 32 -35 29 -35 -3 0 -20 16
-39 35 -19 19 -32 35 -29 35 3 0 20 -16 39 -35z m97 3 c-3 -8 -6 -5 -6 6 -1
11 2 17 5 13 3 -3 4 -12 1 -19z m-3283 -14 c3 -8 2 -12 -4 -9 -6 3 -10 10 -10
16 0 14 7 11 14 -7z m6906 13 c0 -2 -19 -21 -42 -42 l-43 -40 40 43 c36 39 45
47 45 39z m1040 -7 c0 -5 -5 -10 -11 -10 -5 0 -7 5 -4 10 3 6 8 10 11 10 2 0
4 -4 4 -10z m-4663 -32 c-3 -8 -6 -5 -6 6 -1 11 2 17 5 13 3 -3 4 -12 1 -19z
m-27 -23 c13 -14 21 -25 18 -25 -2 0 -15 11 -28 25 -13 14 -21 25 -18 25 2 0
15 -11 28 -25z m-3050 -20 c0 -5 -5 -3 -10 5 -5 8 -10 20 -10 25 0 6 5 3 10
-5 5 -8 10 -19 10 -25z m7531 8 c-12 -20 -14 -14 -5 12 4 9 9 14 11 11 3 -2 0
-13 -6 -23z m-5875 -25 l29 -33 -32 29 c-31 28 -38 36 -30 36 2 0 16 -15 33
-32z m-1636 -33 c0 -5 -5 -3 -10 5 -5 8 -10 20 -10 25 0 6 5 3 10 -5 5 -8 10
-19 10 -25z m7496 9 c-4 -9 -9 -15 -11 -12 -3 3 -3 13 1 22 4 9 9 15 11 12 3
-3 3 -13 -1 -22z m175 -11 c-12 -20 -14 -14 -5 12 4 9 9 14 11 11 3 -2 0 -13
-6 -23z m-5889 -91 c26 -23 44 -42 40 -42 -4 1 -39 31 -78 68 -69 66 -53 55
38 -26z m-1762 43 c0 -5 -5 -3 -10 5 -5 8 -10 20 -10 25 0 6 5 3 10 -5 5 -8
10 -19 10 -25z m7451 8 c-12 -20 -14 -14 -5 12 4 9 9 14 11 11 3 -2 0 -13 -6
-23z m-7611 -68 c0 -5 -5 -3 -10 5 -5 8 -10 20 -10 25 0 6 5 3 10 -5 5 -8 10
-19 10 -25z m7771 8 c-12 -20 -14 -14 -5 12 4 9 9 14 11 11 3 -2 0 -13 -6 -23z
m-7581 -18 c0 -5 -5 -3 -10 5 -5 8 -10 20 -10 25 0 6 5 3 10 -5 5 -8 10 -19
10 -25z m7391 8 c-12 -20 -14 -14 -5 12 4 9 9 14 11 11 3 -2 0 -13 -6 -23z
m170 -40 c-12 -20 -14 -14 -5 12 4 9 9 14 11 11 3 -2 0 -13 -6 -23z m-5735
-25 l29 -33 -32 29 c-31 28 -38 36 -30 36 2 0 16 -15 33 -32z m-1988 -3 c-3
-3 -9 2 -12 12 -6 14 -5 15 5 6 7 -7 10 -15 7 -18z m211 -50 c0 -5 -8 6 -19
25 -11 19 -19 40 -19 45 0 6 8 -6 19 -25 11 -19 19 -39 19 -45z m7302 28 c-11
-21 -20 -35 -21 -31 0 12 33 78 38 74 2 -2 -6 -21 -17 -43z m-7491 -28 c0 -5
-5 -3 -10 5 -5 8 -10 20 -10 25 0 6 5 3 10 -5 5 -8 10 -19 10 -25z m7666 -2
c-8 -15 -15 -25 -16 -21 0 12 23 58 27 54 3 -2 -2 -17 -11 -33z m-5626 -8 c19
-19 32 -35 29 -35 -3 0 -20 16 -39 35 -19 19 -32 35 -29 35 3 0 20 -16 39 -35z
m-2022 -30 c-3 -3 -9 2 -12 12 -6 14 -5 15 5 6 7 -7 10 -15 7 -18z m2102 -40
c19 -19 32 -35 29 -35 -3 0 -20 16 -39 35 -19 19 -32 35 -29 35 3 0 20 -16 39
-35z m5510 1 c-15 -39 -70 -146 -75 -146 -3 0 9 27 25 61 17 33 35 72 40 85 5
13 12 24 15 24 2 0 0 -11 -5 -24z m-7556 -73 c20 -40 34 -73 31 -73 -5 0 -75
136 -75 146 0 12 6 1 44 -73z m2122 5 l29 -33 -32 29 c-31 28 -38 36 -30 36 2
0 16 -15 33 -32z m-1906 -48 c17 -33 28 -60 25 -60 -2 0 -18 27 -35 60 -17 33
-28 60 -25 60 2 0 18 -27 35 -60z m5076 28 l29 -33 -31 28 c-16 15 -35 27 -40
27 -5 0 -30 -25 -54 -55 -25 -29 -49 -54 -53 -55 -5 0 16 27 45 60 29 33 57
60 63 60 6 0 24 -15 41 -32z m2024 -8 c-11 -22 -23 -40 -25 -40 -3 0 4 18 15
40 11 22 23 40 25 40 3 0 -4 -18 -15 -40z m-5120 -35 c19 -19 32 -35 29 -35
-3 0 -20 16 -39 35 -19 19 -32 35 -29 35 3 0 20 -16 39 -35z m3216 -63 c69
-66 53 -55 -38 26 -26 23 -44 42 -40 42 4 -1 39 -31 78 -68z m-1648 -57 l27
-30 -32 29 c-29 26 -33 35 -31 75 l1 46 4 -45 c3 -31 13 -54 31 -75z m-1455
16 c-2 -3 -20 12 -41 34 l-37 39 41 -35 c22 -19 39 -36 37 -38z m-2043 29 c6
-11 8 -20 6 -20 -3 0 -10 9 -16 20 -6 11 -8 20 -6 20 3 0 10 -9 16 -20z m4870
17 c0 -2 -15 -16 -32 -33 l-33 -29 29 33 c28 30 36 37 36 29z m2115 -27 c-9
-16 -18 -30 -21 -30 -2 0 2 14 11 30 9 17 18 30 21 30 2 0 -2 -13 -11 -30z
m185 -20 c-11 -22 -23 -40 -25 -40 -3 0 4 18 15 40 11 22 23 40 25 40 3 0 -4
-18 -15 -40z m-7345 -10 c9 -16 13 -30 11 -30 -3 0 -12 14 -21 30 -9 17 -13
30 -11 30 3 0 12 -13 21 -30z m2271 -32 l29 -33 -32 29 c-31 28 -38 36 -30 36
2 0 16 -15 33 -32z m-2056 2 c6 -11 8 -20 6 -20 -3 0 -10 9 -16 20 -6 11 -8
20 -6 20 3 0 10 -9 16 -20z m4739 -18 c-19 -21 -36 -37 -38 -35 -5 3 59 73 67
73 2 0 -11 -17 -29 -38z m2171 18 c-6 -11 -13 -20 -16 -20 -2 0 0 9 6 20 6 11
13 20 16 20 2 0 0 -9 -6 -20z m-1580 -117 c0 -3 -31 23 -70 57 -38 34 -70 64
-70 67 0 3 32 -23 70 -57 39 -34 70 -64 70 -67z m-1800 82 c19 -19 32 -35 29
-35 -3 0 -20 16 -39 35 -19 19 -32 35 -29 35 3 0 20 -16 39 -35z m-3690 -30
c0 -11 -14 7 -31 40 -7 13 -3 12 10 -5 11 -14 21 -29 21 -35z m7250 35 c-6
-11 -13 -20 -16 -20 -2 0 0 9 6 20 6 11 13 20 16 20 2 0 0 -9 -6 -20z m-7039
-55 l10 -20 -16 20 c-9 11 -21 29 -26 40 l-10 20 16 -20 c9 -11 21 -29 26 -40z
m2188 -72 c2 -2 2 -5 0 -7 -2 -2 -38 27 -79 66 l-75 70 75 -63 c41 -35 77 -65
79 -66z m4621 77 c-6 -11 -13 -20 -16 -20 -2 0 0 9 6 20 6 11 13 20 16 20 2 0
0 -9 -6 -20z m-3250 -25 c19 -19 32 -35 29 -35 -3 0 -20 16 -39 35 -19 19 -32
35 -29 35 3 0 20 -16 39 -35z m1053 2 c-15 -19 -30 -32 -32 -30 -5 3 49 63 57
63 2 0 -9 -15 -25 -33z m-4782 -32 l10 -20 -16 20 c-9 11 -21 29 -26 40 l-10
20 16 -20 c9 -11 21 -29 26 -40z m7170 38 c-5 -10 -17 -27 -26 -38 -16 -19
-17 -19 -3 5 26 46 29 50 34 50 3 0 0 -8 -5 -17z m-6966 -39 c9 -15 12 -23 6
-20 -11 7 -35 46 -28 46 3 0 12 -12 22 -26z m6738 -5 c-10 -17 -24 -36 -32
-42 -8 -7 -2 7 14 31 32 49 45 57 18 11z m-1442 -16 l34 -37 -37 30 c-20 16
-37 32 -37 37 -2 12 4 8 40 -30z m-1691 -18 c19 -19 32 -35 29 -35 -3 0 -20
16 -39 35 -19 19 -32 35 -29 35 3 0 20 -16 39 -35z m903 -8 c-15 -19 -30 -32
-32 -30 -5 3 49 63 57 63 2 0 -9 -15 -25 -33z m-4634 -69 c28 -43 49 -78 47
-78 -5 0 -92 127 -111 160 -19 35 15 -9 64 -82z m7035 64 c-18 -32 -60 -85
-48 -62 17 33 55 90 60 90 3 0 -2 -13 -12 -28z m-6879 8 c3 -5 1 -10 -4 -10
-6 0 -11 5 -11 10 0 6 2 10 4 10 3 0 8 -4 11 -10z m2171 -22 l29 -33 -32 29
c-31 28 -38 36 -30 36 2 0 16 -15 33 -32z m3174 -23 c19 -19 32 -35 29 -35 -3
0 -20 16 -39 35 -19 19 -32 35 -29 35 3 0 20 -16 39 -35z m-1690 -20 c19 -19
32 -35 29 -35 -3 0 -20 16 -39 35 -19 19 -32 35 -29 35 3 0 20 -16 39 -35z
m-3523 -121 c35 -46 60 -84 55 -84 -7 1 -29 30 -115 155 -54 78 -33 54 60 -71z
m2146 67 c-2 -3 -20 12 -41 34 l-37 39 41 -35 c22 -19 39 -36 37 -38z m2157
66 c0 -2 -15 -16 -32 -33 l-33 -29 29 33 c28 30 36 37 36 29z m2204 -12 c-4
-8 -11 -15 -16 -15 -6 0 -5 6 2 15 7 8 14 15 16 15 2 0 1 -7 -2 -15z m-1239
-24 c3 -5 2 -12 -3 -15 -5 -3 -9 1 -9 9 0 17 3 19 12 6z m1215 -11 c0 -5 -5
-10 -11 -10 -5 0 -7 5 -4 10 3 6 8 10 11 10 2 0 4 -4 4 -10z m190 -20 c-12
-16 -24 -30 -26 -30 -3 0 4 14 16 30 12 17 24 30 26 30 3 0 -4 -13 -16 -30z
m-2851 -208 c25 -24 -3 -2 -63 50 -60 51 -130 113 -155 136 -25 24 3 2 63 -50
60 -51 130 -113 155 -136z m421 205 c0 -2 -17 -19 -37 -38 l-38 -34 34 38 c33
34 41 42 41 34z m1010 0 c0 -2 -17 -19 -37 -38 l-38 -34 34 38 c33 34 41 42
41 34z m1190 -27 c-12 -16 -24 -30 -26 -30 -3 0 4 14 16 30 12 17 24 30 26 30
3 0 -4 -13 -16 -30z m-4244 -12 l29 -33 -32 29 c-31 28 -38 36 -30 36 2 0 16
-15 33 -32z m-2406 -28 c12 -16 19 -30 16 -30 -2 0 -14 14 -26 30 -12 17 -19
30 -16 30 2 0 14 -13 26 -30z m2552 -98 c26 -23 44 -42 40 -42 -4 1 -39 31
-78 68 -69 66 -53 55 38 -26z m4038 58 c-17 -22 -34 -40 -37 -40 -2 0 10 18
27 40 17 22 34 40 37 40 2 0 -10 -18 -27 -40z m218 10 c-12 -16 -23 -30 -25
-30 -2 0 4 14 14 30 9 17 21 30 25 30 5 0 -1 -13 -14 -30z m-2488 -50 c-34
-38 -64 -70 -67 -70 -3 0 23 32 57 70 34 39 64 70 67 70 3 0 -23 -31 -57 -70z
m1010 0 c-34 -38 -64 -70 -67 -70 -3 0 23 32 57 70 34 39 64 70 67 70 3 0 -23
-31 -57 -70z m-5274 3 c15 -20 23 -33 16 -29 -13 8 -56 66 -49 66 3 0 17 -17
33 -37z m6724 4 c0 -2 -10 -12 -22 -23 l-23 -19 19 23 c18 21 26 27 26 19z
m-6485 -37 c10 -11 16 -20 13 -20 -3 0 -13 9 -23 20 -10 11 -16 20 -13 20 3 0
13 -9 23 -20z m6243 0 c-7 -11 -17 -20 -22 -20 -5 0 -1 9 9 20 10 11 20 20 22
20 2 0 -2 -9 -9 -20z m-6392 -82 c32 -40 51 -67 43 -60 -19 14 -112 132 -106
132 3 0 31 -33 63 -72z m6550 14 c-25 -32 -68 -82 -96 -112 -28 -30 -9 -4 41
58 98 118 132 152 55 54z m-6355 12 c13 -14 17 -23 9 -19 -13 5 -46 45 -37 45
2 0 14 -11 28 -26z m6169 23 c0 -2 -12 -14 -27 -28 l-28 -24 24 28 c23 25 31
32 31 24z m-3761 -124 c2 -2 2 -5 0 -7 -2 -2 -35 25 -74 61 l-70 66 70 -59
c39 -32 72 -59 74 -61z m1501 104 c0 -2 -17 -19 -37 -38 l-38 -34 34 38 c33
34 41 42 41 34z m1010 0 c0 -2 -17 -19 -37 -38 l-38 -34 34 38 c33 34 41 42
41 34z m-1144 -49 l29 -33 -32 29 c-18 17 -33 31 -33 33 0 8 8 1 36 -29z
m-3453 -294 c51 -48 81 -79 67 -68 -72 56 -243 225 -319 315 -30 35 -6 14 53
-48 59 -62 148 -151 199 -199z m5776 279 c-46 -51 -49 -54 -49 -47 0 9 61 74
69 74 2 0 -6 -12 -20 -27z m-2264 -23 c-3 -5 -12 -10 -18 -10 -7 0 -6 4 3 10
19 12 23 12 15 0z m1015 7 c0 -2 -17 -19 -37 -38 l-38 -34 34 38 c33 34 41 42
41 34z m-4947 -63 c37 -44 30 -44 -13 1 -19 19 -30 35 -24 34 5 0 22 -16 37
-35z m2580 -33 c-2 -3 -18 10 -36 29 l-32 34 36 -30 c20 -16 34 -31 32 -33z
m3522 7 c-84 -87 -113 -116 -205 -198 -101 -91 -262 -221 -320 -259 l-35 -22
29 23 c16 13 86 68 155 123 69 55 189 162 266 237 136 133 190 181 110 96z
m-1225 9 c0 -2 -17 -19 -37 -38 l-38 -34 34 38 c33 34 41 42 41 34z m-4790
-82 c30 -30 52 -55 49 -55 -2 0 -29 25 -59 55 -30 30 -52 55 -49 55 2 0 29
-25 59 -55z m2573 -4 c-2 -3 -18 10 -36 29 l-32 34 36 -30 c20 -16 34 -31 32
-33z m3647 56 c0 -1 -26 -27 -57 -57 -49 -46 -52 -48 -18 -10 47 52 75 77 75
67z m-1561 -117 c-34 -38 -64 -70 -66 -70 -6 0 98 122 112 132 22 17 14 5 -46
-62z m-2033 18 l29 -33 -32 29 c-31 28 -38 36 -30 36 2 0 16 -15 33 -32z m103
-85 c2 -2 2 -5 -1 -8 -2 -3 -20 12 -39 33 l-34 37 35 -30 c19 -17 37 -31 39
-32z m155 -141 c3 -8 -28 16 -69 53 -41 37 -75 69 -75 72 0 8 138 -112 144
-125z m1706 125 c0 -2 -17 -19 -37 -38 l-37 -34 30 37 c25 31 44 46 44 35z
m1430 -1 c0 -2 -8 -10 -17 -17 -16 -13 -17 -12 -4 4 13 16 21 21 21 13z
m-5747 -123 c10 -21 4 -16 -58 49 l-60 62 56 -49 c31 -28 59 -56 62 -62z
m5662 37 c-27 -27 -53 -50 -58 -50 -8 0 93 99 103 100 2 0 -18 -22 -45 -50z
m-5464 13 l24 -28 -30 25 c-16 14 -32 26 -34 28 -2 1 0 2 6 2 5 0 20 -12 34
-27z m3984 -78 c-37 -41 -70 -75 -73 -75 -3 0 10 17 28 38 86 92 104 112 108
112 2 0 -26 -34 -63 -75z m-3930 35 c16 -17 16 -20 3 -15 -9 4 -19 13 -22 21
-7 19 -2 18 19 -6z m-167 -77 c7 -7 9 -13 5 -13 -5 0 -25 17 -44 37 -29 33
-30 34 -4 13 16 -14 35 -31 43 -37z m272 -10 c0 -2 -18 10 -40 27 -22 17 -40
34 -40 37 0 2 18 -10 40 -27 22 -17 40 -34 40 -37z m2310 32 c19 -19 32 -35
29 -35 -3 0 -20 16 -39 35 -19 19 -32 35 -29 35 3 0 20 -16 39 -35z m2895 -5
c-16 -16 -33 -30 -39 -30 -9 0 53 59 63 60 3 0 -8 -13 -24 -30z m-5075 -118
c8 -8 -13 4 -48 28 -35 24 -66 48 -70 54 -7 12 95 -59 118 -82z m2256 56 l29
-33 -32 29 c-18 17 -33 31 -33 33 0 8 8 1 36 -29z m-2456 -120 c14 -13 21 -20
15 -17 -20 12 -195 151 -195 155 0 5 139 -101 180 -138z m5220 138 c0 -3 -42
-37 -92 -77 -51 -40 -87 -66 -80 -57 7 9 44 40 82 69 39 29 70 57 70 61 0 4 5
8 10 8 6 0 10 -2 10 -4z m-1400 -19 c0 -2 -17 -19 -37 -38 l-38 -34 34 38 c33
34 41 42 41 34z m1043 -45 c-29 -25 -105 -73 -92 -59 9 11 114 86 119 86 3 0
-9 -12 -27 -27z m-2226 -116 c4 -6 -28 20 -70 58 -42 38 -77 71 -77 73 0 7
138 -116 147 -131z m1113 81 c0 -2 -17 -19 -37 -38 l-38 -34 34 38 c33 34 41
42 41 34z m-3485 -17 c3 -5 1 -10 -4 -10 -6 0 -11 5 -11 10 0 6 2 10 4 10 3 0
8 -4 11 -10z m30 -20 c3 -5 1 -10 -4 -10 -6 0 -11 5 -11 10 0 6 2 10 4 10 3 0
8 -4 11 -10z m4735 -13 c0 -2 -20 -18 -45 -36 -25 -18 -45 -30 -45 -27 0 4 81
66 87 66 2 0 3 -1 3 -3z m-4969 -34 c13 -16 12 -17 -3 -4 -17 13 -22 21 -14
21 2 0 10 -8 17 -17z m319 -9 c0 -2 -9 0 -20 6 -11 6 -20 13 -20 16 0 2 9 0
20 -6 11 -6 20 -13 20 -16z m4305 10 c-26 -20 -55 -36 -55 -30 0 5 63 46 70
46 3 -1 -4 -8 -15 -16z m-1005 3 c0 -2 -17 -19 -37 -38 l-38 -34 34 38 c33 34
41 42 41 34z m-1041 -34 c-14 -16 -58 -65 -97 -111 -40 -45 -72 -79 -72 -76 0
8 181 214 188 214 3 0 -6 -12 -19 -27z m-2454 -52 c77 -52 118 -84 85 -66 -29
16 -190 127 -190 132 0 5 6 1 105 -66z m275 23 c0 -7 -58 25 -65 36 -3 5 10 1
29 -11 20 -12 36 -23 36 -25z m4160 21 c0 -2 -10 -9 -22 -15 -22 -11 -22 -10
-4 4 21 17 26 19 26 11z m300 -10 c-7 -9 -15 -13 -19 -10 -3 3 1 10 9 15 21
14 24 12 10 -5z m-4390 -51 c0 -2 -13 2 -30 11 -16 9 -30 18 -30 21 0 2 14 -2
30 -11 17 -9 30 -18 30 -21z m4360 32 c0 -3 -47 -36 -105 -71 -49 -30 -15 -1
45 39 55 36 60 39 60 32z m-1371 -111 c-50 -58 -97 -109 -103 -112 -6 -4 20
29 58 73 86 98 129 144 134 144 2 0 -38 -47 -89 -105z m1011 85 c-14 -11 -29
-20 -35 -20 -5 0 4 9 20 20 38 25 48 25 15 0z m-3965 -28 c-3 -3 -11 0 -18 7
-9 10 -8 11 6 5 10 -3 15 -9 12 -12z m95 -47 c0 -3 -18 4 -40 15 -22 11 -40
23 -40 25 0 3 18 -4 40 -15 22 -11 40 -23 40 -25z m3800 40 c0 -2 -18 -14 -40
-25 -22 -11 -40 -18 -40 -15 0 2 17 13 38 24 42 23 42 23 42 16z m-4115 -60
l20 -16 -20 10 c-11 5 -29 17 -40 26 l-20 16 20 -10 c11 -5 29 -17 40 -26z
m4375 10 c0 -2 -15 -12 -32 -20 l-33 -16 25 20 c24 20 40 26 40 16z m-4005
-23 c-3 -3 -11 0 -18 7 -9 10 -8 11 6 5 10 -3 15 -9 12 -12z m3610 -2 c-3 -5
-12 -10 -18 -10 -7 0 -6 4 3 10 19 12 23 12 15 0z m-3895 -36 c0 -2 -9 0 -20
6 -11 6 -20 13 -20 16 0 2 9 0 20 -6 11 -6 20 -13 20 -16z m4220 21 c0 -2 -10
-9 -22 -15 -22 -11 -22 -10 -4 4 21 17 26 19 26 11z m-3820 -30 c14 -8 21 -14
15 -14 -5 0 -21 6 -35 14 -14 8 -20 14 -15 14 6 0 21 -6 35 -14z m1603 -18
c-15 -19 -30 -32 -32 -30 -5 3 49 63 57 63 2 0 -9 -15 -25 -33z m1797 18 c-14
-8 -29 -14 -35 -14 -5 0 1 6 15 14 14 8 30 14 35 14 6 0 -1 -6 -15 -14z
m-3730 -31 c0 -2 -13 2 -30 11 -16 9 -30 18 -30 21 0 2 14 -2 30 -11 17 -9 30
-18 30 -21z m4100 31 c0 -2 -13 -11 -30 -20 -38 -19 -40 -11 -2 9 31 17 32 18
32 11z m-3715 -33 c-3 -3 -11 0 -18 7 -9 10 -8 11 6 5 10 -3 15 -9 12 -12z
m-350 -12 c3 -6 -1 -7 -9 -4 -18 7 -21 14 -7 14 6 0 13 -4 16 -10z m395 0 c8
-5 11 -10 5 -10 -5 0 -17 5 -25 10 -8 5 -10 10 -5 10 6 0 17 -5 25 -10z m3210
6 c0 -3 -4 -8 -10 -11 -5 -3 -10 -1 -10 4 0 6 5 11 10 11 6 0 10 -2 10 -4z
m390 0 c0 -2 -7 -7 -16 -10 -8 -3 -12 -2 -9 4 6 10 25 14 25 6z m-425 -16 c-3
-5 -12 -10 -18 -10 -7 0 -6 4 3 10 19 12 23 12 15 0z m-695 -3 c0 -2 -15 -16
-32 -33 l-33 -29 29 33 c28 30 36 37 36 29z m-2700 -82 c0 -3 -31 11 -70 30
-38 19 -70 38 -70 40 0 3 32 -11 70 -30 39 -19 70 -38 70 -40z m290 65 c8 -5
11 -10 5 -10 -5 0 -17 5 -25 10 -8 5 -10 10 -5 10 6 0 17 -5 25 -10z m1363
-23 c-15 -19 -30 -32 -32 -30 -5 3 49 63 57 63 2 0 -9 -15 -25 -33z m1697 23
c-8 -5 -19 -10 -25 -10 -5 0 -3 5 5 10 8 5 20 10 25 10 6 0 3 -5 -5 -10z m410
5 c0 -2 -14 -12 -31 -21 -17 -8 -28 -11 -24 -4 4 6 17 15 29 20 27 11 26 11
26 5z m-460 -25 c-8 -5 -19 -10 -25 -10 -5 0 -3 5 5 10 8 5 20 10 25 10 6 0 3
-5 -5 -10z m-2903 -26 c-5 -5 -57 13 -57 20 0 3 14 0 31 -6 16 -6 28 -12 26
-14z m3293 12 c0 -2 -7 -6 -15 -10 -8 -3 -15 -1 -15 4 0 6 7 10 15 10 8 0 15
-2 15 -4z m-465 -16 c-3 -5 -14 -10 -23 -9 -14 0 -13 2 3 9 27 11 27 11 20 0z
m-630 -48 l-39 -37 35 41 c19 22 36 39 39 37 2 -2 -13 -20 -35 -41z m1045 38
c-8 -5 -19 -10 -25 -10 -5 0 -3 5 5 10 8 5 20 10 25 10 6 0 3 -5 -5 -10z
m-3165 -10 c13 -6 15 -9 5 -9 -8 0 -22 4 -30 9 -18 12 -2 12 25 0z m2695 0
c-8 -5 -22 -9 -30 -9 -10 0 -8 3 5 9 27 12 43 12 25 0z m-1609 -59 c-28 -32
-58 -64 -68 -72 -10 -8 11 19 46 59 35 39 66 72 68 72 3 0 -18 -26 -46 -59z
m-1496 39 c3 -6 -1 -7 -9 -4 -18 7 -21 14 -7 14 6 0 13 -4 16 -10z m3475 -15
c-14 -8 -29 -14 -35 -14 -5 0 1 6 15 14 14 8 30 14 35 14 6 0 -1 -6 -15 -14z
m-3430 -5 c8 -5 11 -10 5 -10 -5 0 -17 5 -25 10 -8 5 -10 10 -5 10 6 0 17 -5
25 -10z m545 -20 c13 -6 15 -9 5 -9 -8 0 -22 4 -30 9 -18 12 -2 12 25 0z
m2352 4 c-3 -3 -12 -4 -19 -1 -8 3 -5 6 6 6 11 1 17 -2 13 -5z m-2827 -14 c8
-5 11 -10 5 -10 -5 0 -17 5 -25 10 -8 5 -10 10 -5 10 6 0 17 -5 25 -10z m3280
0 c-8 -5 -19 -10 -25 -10 -5 0 -3 5 5 10 8 5 20 10 25 10 6 0 3 -5 -5 -10z
m-2755 -10 c3 -6 -1 -7 -9 -4 -18 7 -21 14 -7 14 6 0 13 -4 16 -10z m1855 7
c0 -2 -17 -19 -37 -38 l-38 -34 34 38 c33 34 41 42 41 34z m-2330 -17 c8 -5
11 -10 5 -10 -5 0 -17 5 -25 10 -8 5 -10 10 -5 10 6 0 17 -5 25 -10z m2677 4
c-3 -3 -12 -4 -19 -1 -8 3 -5 6 6 6 11 1 17 -2 13 -5z m503 -4 c-8 -5 -19 -10
-25 -10 -5 0 -3 5 5 10 8 5 20 10 25 10 6 0 3 -5 -5 -10z m-2603 -16 c-3 -3
-12 -4 -19 -1 -8 3 -5 6 6 6 11 1 17 -2 13 -5z m2030 0 c-3 -3 -12 -4 -19 -1
-8 3 -5 6 6 6 11 1 17 -2 13 -5z m-1990 -10 c-3 -3 -12 -4 -19 -1 -8 3 -5 6 6
6 11 1 17 -2 13 -5z m1950 0 c-3 -3 -12 -4 -19 -1 -8 3 -5 6 6 6 11 1 17 -2
13 -5z m-2467 -14 c8 -5 11 -10 5 -10 -5 0 -17 5 -25 10 -8 5 -10 10 -5 10 6
0 17 -5 25 -10z m557 4 c-3 -3 -12 -4 -19 -1 -8 3 -5 6 6 6 11 1 17 -2 13 -5z
m1870 0 c-3 -3 -12 -4 -19 -1 -8 3 -5 6 6 6 11 1 17 -2 13 -5z m553 -4 c-8 -5
-19 -10 -25 -10 -5 0 -3 5 5 10 8 5 20 10 25 10 6 0 3 -5 -5 -10z m-2383 -6
c-3 -3 -12 -4 -19 -1 -8 3 -5 6 6 6 11 1 17 -2 13 -5z m1793 2 c0 -2 -9 -6
-20 -9 -11 -3 -18 -1 -14 4 5 9 34 13 34 5z m-1753 -12 c-3 -3 -12 -4 -19 -1
-8 3 -5 6 6 6 11 1 17 -2 13 -5z m50 -10 c-3 -3 -12 -4 -19 -1 -8 3 -5 6 6 6
11 1 17 -2 13 -5z m463 3 c0 -2 -17 -19 -37 -38 l-38 -34 34 38 c33 34 41 42
41 34z m1001 -10 c-6 -8 -8 -17 -4 -20 3 -4 -2 -7 -12 -7 -17 0 -17 1 0 20 20
22 34 28 16 7z m146 7 c-3 -3 -12 -4 -19 -1 -8 3 -5 6 6 6 11 1 17 -2 13 -5z
m-1552 -14 c3 -6 -1 -7 -9 -4 -18 7 -21 14 -7 14 6 0 13 -4 16 -10z m2125 0
c-8 -5 -19 -10 -25 -10 -5 0 -3 5 5 10 8 5 20 10 25 10 6 0 3 -5 -5 -10z
m-2730 -10 c18 -12 2 -12 -25 0 -13 6 -15 9 -5 9 8 0 22 -4 30 -9z m647 4 c-3
-3 -12 -4 -19 -1 -8 3 -5 6 6 6 11 1 17 -2 13 -5z m1416 -1 c-7 -2 -19 -2 -25
0 -7 3 -2 5 12 5 14 0 19 -2 13 -5z m-1360 -10 c-7 -2 -19 -2 -25 0 -7 3 -2 5
12 5 14 0 19 -2 13 -5z m64 -9 c-3 -3 -12 -4 -19 -1 -8 3 -5 6 6 6 11 1 17 -2
13 -5z m1878 -4 c-11 -5 -27 -9 -35 -9 -9 0 -8 4 5 9 11 5 27 9 35 9 9 0 8 -4
-5 -9z m-1812 -7 c-7 -2 -19 -2 -25 0 -7 3 -2 5 12 5 14 0 19 -2 13 -5z m70
-10 c-7 -2 -19 -2 -25 0 -7 3 -2 5 12 5 14 0 19 -2 13 -5z m-726 -19 c-3 -3
-12 -4 -19 -1 -8 3 -5 6 6 6 11 1 17 -2 13 -5z m64 -22 c-7 -2 -18 1 -23 6 -8
8 -4 9 13 5 13 -4 18 -8 10 -11z m2216 2 c-3 -3 -12 -4 -19 -1 -8 3 -5 6 6 6
11 1 17 -2 13 -5z m-40 -10 c-3 -3 -12 -4 -19 -1 -8 3 -5 6 6 6 11 1 17 -2 13
-5z m-2050 -20 c-3 -3 -12 -4 -19 -1 -8 3 -5 6 6 6 11 1 17 -2 13 -5z m1970 0
c-3 -3 -12 -4 -19 -1 -8 3 -5 6 6 6 11 1 17 -2 13 -5z m-1930 -10 c-3 -3 -12
-4 -19 -1 -8 3 -5 6 6 6 11 1 17 -2 13 -5z m40 -10 c-3 -3 -12 -4 -19 -1 -8 3
-5 6 6 6 11 1 17 -2 13 -5z m1810 0 c-3 -3 -12 -4 -19 -1 -8 3 -5 6 6 6 11 1
17 -2 13 -5z m-50 -10 c-3 -3 -12 -4 -19 -1 -8 3 -5 6 6 6 11 1 17 -2 13 -5z
m-50 -10 c-3 -3 -12 -4 -19 -1 -8 3 -5 6 6 6 11 1 17 -2 13 -5z m-1560 -10
c-3 -3 -12 -4 -19 -1 -8 3 -5 6 6 6 11 1 17 -2 13 -5z m1510 0 c-3 -3 -12 -4
-19 -1 -8 3 -5 6 6 6 11 1 17 -2 13 -5z m-60 -10 c-3 -3 -12 -4 -19 -1 -8 3
-5 6 6 6 11 1 17 -2 13 -5z m-1330 -10 c-3 -3 -12 -4 -19 -1 -8 3 -5 6 6 6 11
1 17 -2 13 -5z m1270 0 c-3 -3 -12 -4 -19 -1 -8 3 -5 6 6 6 11 1 17 -2 13 -5z
m-1200 -10 c-3 -3 -12 -4 -19 -1 -8 3 -5 6 6 6 11 1 17 -2 13 -5z m1130 0 c-3
-3 -12 -4 -19 -1 -8 3 -5 6 6 6 11 1 17 -2 13 -5z m-77 -11 c-8 -3 -33 -22
-55 -42 l-40 -36 40 43 c21 23 46 42 55 41 13 0 13 -1 0 -6z m-1030 -6 c0 -2
-17 -19 -37 -38 l-38 -34 34 38 c33 34 41 42 41 34z m-87 -101 c-10 -13 -20
-22 -22 -20 -4 4 29 44 36 44 2 0 -4 -11 -14 -24z m1027 21 c0 -2 -17 -19 -37
-38 l-38 -34 34 38 c33 34 41 42 41 34z m-961 -104 c2 -2 2 -5 -1 -8 -2 -3
-20 12 -39 33 l-34 37 35 -30 c19 -17 37 -31 39 -32z m891 24 c0 -2 -17 -19
-37 -38 l-37 -34 30 37 c25 31 44 46 44 35z m-840 -72 c19 -19 32 -35 29 -35
-3 0 -20 16 -39 35 -19 19 -32 35 -29 35 3 0 20 -16 39 -35z m770 -8 c0 -2
-17 -19 -37 -38 l-38 -34 34 38 c33 34 41 42 41 34z m-513 -221 c4 -6 -41 31
-100 83 -59 52 -111 99 -114 105 -4 6 41 -31 100 -83 59 -52 111 -99 114 -105z
m351 37 c-51 -58 -113 -127 -137 -152 -24 -25 -15 -12 21 29 102 121 200 230
205 230 2 0 -37 -48 -89 -107z m-298 -78 c19 -19 32 -35 29 -35 -3 0 -20 16
-39 35 -19 19 -32 35 -29 35 3 0 20 -16 39 -35z m80 -70 c19 -19 32 -35 29
-35 -3 0 -20 16 -39 35 -19 19 -32 35 -29 35 3 0 20 -16 39 -35z"/>
</g>
</svg>
